<?plantuml 1.2026.2?><svg xmlns="http://www.w3.org/2000/svg" xmlns:xlink="http://www.w3.org/1999/xlink" contentStyleType="text/css" data-diagram-type="STATE" height="1609.375px" preserveAspectRatio="none" style="width:1787px;height:1609px;" version="1.1" viewBox="0 0 1787 1609" width="1787.5px" zoomAndPan="magnify"><title>Smart Thermostat State Machine</title><defs/><g><g class="title" data-source-line="2"><text fill="#000000" font-family="'Segoe UI', 'Inter', 'sans-serif'" font-size="43.75" font-weight="bold" lengthAdjust="spacing" textLength="676.6083" x="534.7387" y="78.4607">Smart Thermostat State Machine</text></g><path d="M662.9063,395.6909 L945.8347,395.6909 A15.625,15.625 0 0 1 961.4597,411.3159 L961.4597,476.8188 L647.2813,476.8188 L647.2813,411.3159 A15.625,15.625 0 0 1 662.9063,395.6909" fill="#F1F1F1"/><rect fill="none" height="478.0029" rx="15.625" ry="15.625" style="stroke:#181818;stroke-width:1.5625;" width="314.1785" x="647.2813" y="395.6909"/><line style="stroke:#181818;stroke-width:1.5625;" x1="647.2813" x2="961.4597" y1="476.8188" y2="476.8188"/><text fill="#000000" font-family="'Segoe UI', 'Inter', 'sans-serif'" font-size="37.5" lengthAdjust="spacing" textLength="60.7544" x="773.9933" y="451.7822">Idle</text><g class="start_entity" data-qualified-name="Idle..start.Idle" data-source-line="7" id="ent0004"><ellipse cx="809.0625" cy="542.4438" fill="#222222" rx="31.25" ry="31.25" style="stroke:#222222;stroke-width:3.125;"/></g><g class="entity" data-qualified-name="Idle.Monitoring" id="ent0005"><rect fill="#F1F1F1" height="156.25" rx="15.625" ry="15.625" style="stroke:#181818;stroke-width:1.5625;" width="248.5535" x="684.7813" y="686.1938"/><line style="stroke:#181818;stroke-width:1.5625;" x1="684.7813" x2="933.3347" y1="767.3218" y2="767.3218"/><text fill="#000000" font-family="'Segoe UI', 'Inter', 'sans-serif'" font-size="37.5" lengthAdjust="spacing" textLength="186.0535" x="716.0313" y="742.2852">Monitoring</text></g><!--link *start*Idle to Monitoring--><g class="link" data-entity-1="ent0004" data-entity-2="ent0005" data-link-type="dependency" data-source-line="7" id="lnk6"><path d="M809.0625,574.6626 C809.0625,602.9126 809.0625,628.3501 809.0625,666.6001" fill="none" id="*start*Idle-to-Monitoring" style="stroke:#7AA2F7;stroke-width:3.125;"/><polygon fill="#7AA2F7" points="809.0625,685.3501,821.5625,657.2251,809.0625,669.7251,796.5625,657.2251,809.0625,685.3501" style="stroke:#7AA2F7;stroke-width:3.125;"/></g><path d="M204.5,1114.3159 L460.4937,1114.3159 A15.625,15.625 0 0 1 476.1187,1129.9409 L476.1187,1195.4438 L188.875,1195.4438 L188.875,1129.9409 A15.625,15.625 0 0 1 204.5,1114.3159" fill="#F7768E"/><rect fill="none" height="478.0029" rx="15.625" ry="15.625" style="stroke:#181818;stroke-width:1.5625;" width="287.2437" x="188.875" y="1114.3159"/><line style="stroke:#181818;stroke-width:1.5625;" x1="188.875" x2="476.1187" y1="1195.4438" y2="1195.4438"/><text fill="#000000" font-family="'Segoe UI', 'Inter', 'sans-serif'" font-size="37.5" lengthAdjust="spacing" textLength="130.4077" x="267.293" y="1170.4072">Heating</text><g class="start_entity" data-qualified-name="Heating..start.Heating" data-source-line="17" id="ent0011"><ellipse cx="337.1875" cy="1261.0688" fill="#222222" rx="31.25" ry="31.25" style="stroke:#222222;stroke-width:3.125;"/></g><g class="entity" data-qualified-name="Heating.BurnerOn" id="ent0012"><rect fill="#F1F1F1" height="156.25" rx="15.625" ry="15.625" style="stroke:#181818;stroke-width:1.5625;" width="221.6187" x="226.375" y="1404.8188"/><line style="stroke:#181818;stroke-width:1.5625;" x1="226.375" x2="447.9937" y1="1485.9468" y2="1485.9468"/><text fill="#000000" font-family="'Segoe UI', 'Inter', 'sans-serif'" font-size="37.5" lengthAdjust="spacing" textLength="159.1187" x="257.625" y="1460.9102">BurnerOn</text></g><!--link *start*Heating to BurnerOn--><g class="link" data-entity-1="ent0011" data-entity-2="ent0012" data-link-type="dependency" data-source-line="17" id="lnk13"><path d="M337.1875,1293.2876 C337.1875,1321.5376 337.1875,1346.9751 337.1875,1385.2251" fill="none" id="*start*Heating-to-BurnerOn" style="stroke:#7AA2F7;stroke-width:3.125;"/><polygon fill="#7AA2F7" points="337.1875,1403.9751,349.6875,1375.8501,337.1875,1388.3501,324.6875,1375.8501,337.1875,1403.9751" style="stroke:#7AA2F7;stroke-width:3.125;"/></g><path d="M1112.9063,1114.3159 L1458.292,1114.3159 A15.625,15.625 0 0 1 1473.917,1129.9409 L1473.917,1195.4438 L1097.2813,1195.4438 L1097.2813,1129.9409 A15.625,15.625 0 0 1 1112.9063,1114.3159" fill="#7AA2F7"/><rect fill="none" height="478.0029" rx="15.625" ry="15.625" style="stroke:#181818;stroke-width:1.5625;" width="376.6357" x="1097.2813" y="1114.3159"/><line style="stroke:#181818;stroke-width:1.5625;" x1="1097.2813" x2="1473.917" y1="1195.4438" y2="1195.4438"/><text fill="#000000" font-family="'Segoe UI', 'Inter', 'sans-serif'" font-size="37.5" lengthAdjust="spacing" textLength="128.6316" x="1221.2833" y="1170.4072">Cooling</text><g class="start_entity" data-qualified-name="Cooling..start.Cooling" data-source-line="21" id="ent0014"><ellipse cx="1290.2813" cy="1261.0688" fill="#222222" rx="31.25" ry="31.25" style="stroke:#222222;stroke-width:3.125;"/></g><g class="entity" data-qualified-name="Cooling.CompressorOn" id="ent0015"><rect fill="#F1F1F1" height="156.25" rx="15.625" ry="15.625" style="stroke:#181818;stroke-width:1.5625;" width="311.0107" x="1134.7813" y="1404.8188"/><line style="stroke:#181818;stroke-width:1.5625;" x1="1134.7813" x2="1445.792" y1="1485.9468" y2="1485.9468"/><text fill="#000000" font-family="'Segoe UI', 'Inter', 'sans-serif'" font-size="37.5" lengthAdjust="spacing" textLength="248.5107" x="1166.0313" y="1460.9102">CompressorOn</text></g><!--link *start*Cooling to CompressorOn--><g class="link" data-entity-1="ent0014" data-entity-2="ent0015" data-link-type="dependency" data-source-line="21" id="lnk16"><path d="M1290.2813,1293.2876 C1290.2813,1321.5376 1290.2813,1346.9751 1290.2813,1385.2251" fill="none" id="*start*Cooling-to-CompressorOn" style="stroke:#7AA2F7;stroke-width:3.125;"/><polygon fill="#7AA2F7" points="1290.2813,1403.9751,1302.7813,1375.8501,1290.2813,1388.3501,1277.7813,1375.8501,1290.2813,1403.9751" style="stroke:#7AA2F7;stroke-width:3.125;"/></g><g class="start_entity" data-qualified-name=".start." data-source-line="4" id="ent0002"><ellipse cx="804.3438" cy="173.8159" fill="#222222" rx="31.25" ry="31.25" style="stroke:#222222;stroke-width:3.125;"/></g><!--link *start* to Idle--><g class="link" data-entity-1="ent0002" data-entity-2="ent0002" data-link-type="dependency" data-source-line="4" id="lnk3"><path d="M804.3438,205.3784 C804.3438,244.6284 804.3438,300.5034 804.3438,376.4722" fill="none" id="*start*-to-Idle" style="stroke:#7AA2F7;stroke-width:3.125;"/><polygon fill="#7AA2F7" points="804.3438,395.2222,816.8438,367.0972,804.3438,379.5972,791.8438,367.0972,804.3438,395.2222" style="stroke:#7AA2F7;stroke-width:3.125;"/></g><!--link Idle to Heating--><g class="link" data-entity-1="ent0002" data-entity-2="ent0003" data-link-type="dependency" data-source-line="10" id="lnk7"><path d="M646.1875,659.5347 C473.1875,692.6597 203.9688,773.8784 79.3438,967.4409 C18.75,1061.5347 86.8995,1155.23 173.3683,1231.7925" fill="none" id="Idle-to-Heating" style="stroke:#7AA2F7;stroke-width:3.125;"/><polygon fill="#7AA2F7" points="187.4063,1244.2222,174.6358,1216.2189,175.7079,1233.8641,158.0628,1234.9362,187.4063,1244.2222" style="stroke:#7AA2F7;stroke-width:3.125;"/><text fill="#000000" font-family="'Segoe UI', 'Inter', 'sans-serif'" font-size="37.5" lengthAdjust="spacing" textLength="359.3445" x="82.4688" y="1011.0322">Temp &lt; Threshold - 1</text></g><!--link Heating to Idle--><g class="link" data-entity-1="ent0003" data-entity-2="ent0002" data-link-type="dependency" data-source-line="13" id="lnk9"><path d="M473.5312,1113.6284 C503.6563,1064.8784 535.7813,1014.1597 566.8438,967.4409 C591.8438,929.8472 608.3238,905.723 635.2926,867.7855" fill="none" id="Heating-to-Idle" style="stroke:#7AA2F7;stroke-width:3.125;"/><polygon fill="#7AA2F7" points="646.1563,852.5034,619.6727,868.1842,637.1032,865.2385,640.0489,882.669,646.1563,852.5034" style="stroke:#7AA2F7;stroke-width:3.125;"/><text fill="#000000" font-family="'Segoe UI', 'Inter', 'sans-serif'" font-size="37.5" lengthAdjust="spacing" textLength="329.2419" x="569.9688" y="1011.0322">Temp &gt;= Threshold</text></g><!--link Idle to Cooling--><g class="link" data-entity-1="ent0002" data-entity-2="ent0004" data-link-type="dependency" data-source-line="11" id="lnk8"><path d="M934.75,874.8159 C963.625,923.7847 994.9688,974.4722 1026.2188,1020.5659 C1047.9063,1052.5034 1060.4314,1070.3753 1084.5564,1102.3753" fill="none" id="Idle-to-Cooling" style="stroke:#7AA2F7;stroke-width:3.125;"/><polygon fill="#7AA2F7" points="1095.8437,1117.3472,1088.8939,1087.3644,1086.4376,1104.8706,1068.9314,1102.4143,1095.8437,1117.3472" style="stroke:#7AA2F7;stroke-width:3.125;"/><text fill="#000000" font-family="'Segoe UI', 'Inter', 'sans-serif'" font-size="37.5" lengthAdjust="spacing" textLength="370.0012" x="1029.3438" y="1011.0322">Temp &gt; Threshold + 1</text></g><!--link Cooling to Idle--><g class="link" data-entity-1="ent0004" data-entity-2="ent0002" data-link-type="dependency" data-source-line="14" id="lnk10"><path d="M1427.8125,1113.4409 C1440.7813,1063.4409 1440.4688,1012.2847 1413.7188,967.4409 C1316.75,804.7222 1126.4209,722.7474 980.4834,679.6849" fill="none" id="Cooling-to-Idle" style="stroke:#7AA2F7;stroke-width:3.125;"/><polygon fill="#7AA2F7" points="962.5,674.3784,985.9375,694.3271,977.4862,678.8005,993.0128,670.3492,962.5,674.3784" style="stroke:#7AA2F7;stroke-width:3.125;"/><text fill="#000000" font-family="'Segoe UI', 'Inter', 'sans-serif'" font-size="37.5" lengthAdjust="spacing" textLength="329.2419" x="1435.5938" y="1011.0322">Temp &lt;= Threshold</text></g><?plantuml-src NP0z2y8m48Rt-nKdRaehEbWHTT151t7GJHo2lTf0FafodSJ_RbgDbeOGahldtjnx0sdkgiu9qtJItS9xOZ-f76bPwuHBqfHMjLR0aXNXMGl7U2d9QUjPC9x3GNWKzr8Q0hYERfWa6ppaAhnycspk-0GCAwQFraYsJfe7l01Qe0dlIN28uH8lf2jSXOyS-TAg71ES_hcTjQh3RJhSE70GTM8dFt3z9o6AzA5L5_fQY8B38ilcYxwRRUqCkPDfl7pug3tCX9WLMO_VMHq6xBrjQzu0?></g></svg>