<?plantuml 1.2026.2?><svg xmlns="http://www.w3.org/2000/svg" xmlns:xlink="http://www.w3.org/1999/xlink" contentStyleType="text/css" data-diagram-type="ACTIVITY" height="2265.625px" preserveAspectRatio="none" style="width:1509px;height:2265px;" version="1.1" viewBox="0 0 1509 2265" width="1509.375px" zoomAndPan="magnify"><title>Order Processing Activity</title><defs/><g><g class="title" data-source-line="2"><text fill="#000000" font-family="'Segoe UI', 'Inter', 'sans-serif'" font-size="43.75" font-weight="bold" lengthAdjust="spacing" textLength="521.0052" x="490.5548" y="109.7107">Order Processing Activity</text></g><rect fill="none" height="49.8779" style="stroke:none;stroke-width:3.125;" width="1408.3649" x="46.875" y="159.79"/><ellipse cx="225.1862" cy="256.543" fill="#222222" rx="31.25" ry="31.25" style="stroke:#222222;stroke-width:3.125;"/><rect fill="#F1F1F1" height="112.3779" rx="15.625" ry="15.625" style="stroke:#181818;stroke-width:1.5625;" width="319.1223" x="65.625" y="350.293"/><text fill="#000000" font-family="'Segoe UI', 'Inter', 'sans-serif'" font-size="37.5" lengthAdjust="spacing" textLength="256.6223" x="96.875" y="422.0093">Browse Catalog</text><rect fill="#F1F1F1" height="112.3779" rx="15.625" ry="15.625" style="stroke:#181818;stroke-width:1.5625;" width="261.5356" x="94.4183" y="525.1709"/><text fill="#000000" font-family="'Segoe UI', 'Inter', 'sans-serif'" font-size="37.5" lengthAdjust="spacing" textLength="199.0356" x="125.6683" y="596.8872">Select Items</text><rect fill="#F1F1F1" height="112.3779" rx="15.625" ry="15.625" style="stroke:#181818;stroke-width:1.5625;" width="218.4143" x="115.979" y="700.0488"/><text fill="#000000" font-family="'Segoe UI', 'Inter', 'sans-serif'" font-size="37.5" lengthAdjust="spacing" textLength="155.9143" x="147.229" y="771.7651">Checkout</text><rect fill="#F1F1F1" height="112.3779" rx="15.625" ry="15.625" style="stroke:#181818;stroke-width:1.5625;" width="294.4397" x="77.9663" y="1986.8164"/><text fill="#000000" font-family="'Segoe UI', 'Inter', 'sans-serif'" font-size="37.5" lengthAdjust="spacing" textLength="231.9397" x="109.2163" y="2058.5327">Receive Order</text><ellipse cx="225.1862" cy="2196.0693" fill="none" rx="34.375" ry="34.375" style="stroke:#222222;stroke-width:3.125;"/><ellipse cx="225.1862" cy="2196.0693" fill="#222222" rx="18.75" ry="18.75" style="stroke:#222222;stroke-width:3.125;"/><line style="stroke:#000000;stroke-width:4.6875;" x1="46.875" x2="46.875" y1="159.79" y2="2230.4443"/><rect fill="#F7768E" height="2070.6543" style="stroke:#F7768E;stroke-width:3.125;" width="779.8767" x="397.2473" y="159.79"/><rect fill="#F1F1F1" height="112.3779" rx="15.625" ry="15.625" style="stroke:#181818;stroke-width:1.5625;" width="420.1965" x="615.5106" y="874.9268"/><text fill="#000000" font-family="'Segoe UI', 'Inter', 'sans-serif'" font-size="37.5" lengthAdjust="spacing" textLength="357.6965" x="646.7606" y="946.6431">Authorize Credit Card</text><polygon fill="#F1F1F1" points="726.1642,1049.8047,925.0534,1049.8047,962.5534,1087.3047,925.0534,1124.8047,726.1642,1124.8047,688.6642,1087.3047,726.1642,1049.8047" style="stroke:#181818;stroke-width:1.5625;"/><text fill="#000000" font-family="'Segoe UI', 'Inter', 'sans-serif'" font-size="37.5" lengthAdjust="spacing" textLength="198.8892" x="726.1642" y="1102.832">Authorized?</text><text fill="#000000" font-family="'Segoe UI', 'Inter', 'sans-serif'" font-size="37.5" lengthAdjust="spacing" textLength="53.6682" x="634.996" y="1077.8931">yes</text><text fill="#000000" font-family="'Segoe UI', 'Inter', 'sans-serif'" font-size="37.5" lengthAdjust="spacing" textLength="43.1946" x="962.5534" y="1077.8931">no</text><rect fill="#F1F1F1" height="112.3779" rx="15.625" ry="15.625" style="stroke:#181818;stroke-width:1.5625;" width="413.6597" x="415.9973" y="1156.0547"/><text fill="#000000" font-family="'Segoe UI', 'Inter', 'sans-serif'" font-size="37.5" lengthAdjust="spacing" textLength="351.1597" x="447.2473" y="1227.771">Generate Transaction</text><rect fill="#F1F1F1" height="112.3779" rx="15.625" ry="15.625" style="stroke:#181818;stroke-width:1.5625;" width="272.467" x="892.157" y="1156.0547"/><text fill="#000000" font-family="'Segoe UI', 'Inter', 'sans-serif'" font-size="37.5" lengthAdjust="spacing" textLength="209.967" x="923.407" y="1227.771">Display Error</text><ellipse cx="1028.3905" cy="1365.3076" fill="none" rx="34.375" ry="34.375" style="stroke:#222222;stroke-width:3.125;"/><ellipse cx="1028.3905" cy="1365.3076" fill="#222222" rx="18.75" ry="18.75" style="stroke:#222222;stroke-width:3.125;"/><line style="stroke:#000000;stroke-width:4.6875;" x1="397.2473" x2="397.2473" y1="159.79" y2="2230.4443"/><rect fill="#7AA2F7" height="2070.6543" style="stroke:#7AA2F7;stroke-width:3.125;" width="276.1047" x="1177.124" y="159.79"/><rect fill="#F1F1F1" height="112.3779" rx="15.625" ry="15.625" style="stroke:#181818;stroke-width:1.5625;" width="229.3274" x="1203.6377" y="1462.1826"/><text fill="#000000" font-family="'Segoe UI', 'Inter', 'sans-serif'" font-size="37.5" lengthAdjust="spacing" textLength="166.8274" x="1234.8877" y="1533.8989">Pick Items</text><rect fill="#F1F1F1" height="112.3779" rx="15.625" ry="15.625" style="stroke:#181818;stroke-width:1.5625;" width="244.8547" x="1195.874" y="1637.0605"/><text fill="#000000" font-family="'Segoe UI', 'Inter', 'sans-serif'" font-size="37.5" lengthAdjust="spacing" textLength="182.3547" x="1227.124" y="1708.7769">Pack Order</text><rect fill="#F1F1F1" height="112.3779" rx="15.625" ry="15.625" style="stroke:#181818;stroke-width:1.5625;" width="241.0828" x="1197.76" y="1811.9385"/><text fill="#000000" font-family="'Segoe UI', 'Inter', 'sans-serif'" font-size="37.5" lengthAdjust="spacing" textLength="178.5828" x="1229.01" y="1883.6548">Ship Order</text><line style="stroke:#000000;stroke-width:4.6875;" x1="1177.124" x2="1177.124" y1="159.79" y2="2230.4443"/><line style="stroke:#000000;stroke-width:4.6875;" x1="1453.2288" x2="1453.2288" y1="159.79" y2="2230.4443"/><line style="stroke:#7AA2F7;stroke-width:3.125;" x1="225.1862" x2="225.1862" y1="287.793" y2="350.293"/><polygon fill="#7AA2F7" points="212.6862,319.043,225.1862,350.293,237.6862,319.043,225.1862,331.543" style="stroke:#7AA2F7;stroke-width:3.125;"/><line style="stroke:#7AA2F7;stroke-width:3.125;" x1="225.1862" x2="225.1862" y1="462.6709" y2="525.1709"/><polygon fill="#7AA2F7" points="212.6862,493.9209,225.1862,525.1709,237.6862,493.9209,225.1862,506.4209" style="stroke:#7AA2F7;stroke-width:3.125;"/><line style="stroke:#7AA2F7;stroke-width:3.125;" x1="225.1862" x2="225.1862" y1="637.5488" y2="700.0488"/><polygon fill="#7AA2F7" points="212.6862,668.7988,225.1862,700.0488,237.6862,668.7988,225.1862,681.2988" style="stroke:#7AA2F7;stroke-width:3.125;"/><line style="stroke:#7AA2F7;stroke-width:3.125;" x1="225.1862" x2="225.1862" y1="2099.1943" y2="2161.6943"/><polygon fill="#7AA2F7" points="212.6862,2130.4443,225.1862,2161.6943,237.6862,2130.4443,225.1862,2142.9443" style="stroke:#7AA2F7;stroke-width:3.125;"/><line style="stroke:#7AA2F7;stroke-width:3.125;" x1="1028.3905" x2="1028.3905" y1="1268.4326" y2="1330.9326"/><polygon fill="#7AA2F7" points="1015.8905,1299.6826,1028.3905,1330.9326,1040.8905,1299.6826,1028.3905,1312.1826" style="stroke:#7AA2F7;stroke-width:3.125;"/><line style="stroke:#7AA2F7;stroke-width:3.125;" x1="688.6642" x2="622.8271" y1="1087.3047" y2="1087.3047"/><line style="stroke:#7AA2F7;stroke-width:3.125;" x1="622.8271" x2="622.8271" y1="1087.3047" y2="1156.0547"/><polygon fill="#7AA2F7" points="610.3271,1124.8047,622.8271,1156.0547,635.3271,1124.8047,622.8271,1137.3047" style="stroke:#7AA2F7;stroke-width:3.125;"/><line style="stroke:#7AA2F7;stroke-width:3.125;" x1="962.5534" x2="1028.3905" y1="1087.3047" y2="1087.3047"/><line style="stroke:#7AA2F7;stroke-width:3.125;" x1="1028.3905" x2="1028.3905" y1="1087.3047" y2="1156.0547"/><polygon fill="#7AA2F7" points="1015.8905,1124.8047,1028.3905,1156.0547,1040.8905,1124.8047,1028.3905,1137.3047" style="stroke:#7AA2F7;stroke-width:3.125;"/><line style="stroke:#7AA2F7;stroke-width:3.125;" x1="622.8271" x2="622.8271" y1="1268.4326" y2="1415.3076"/><line style="stroke:#7AA2F7;stroke-width:3.125;" x1="622.8271" x2="1318.3014" y1="1415.3076" y2="1415.3076"/><line style="stroke:#7AA2F7;stroke-width:3.125;" x1="1318.3014" x2="1318.3014" y1="1415.3076" y2="1462.1826"/><polygon fill="#7AA2F7" points="1305.8014,1430.9326,1318.3014,1462.1826,1330.8014,1430.9326,1318.3014,1443.4326" style="stroke:#7AA2F7;stroke-width:3.125;"/><line style="stroke:#7AA2F7;stroke-width:3.125;" x1="825.6088" x2="825.6088" y1="987.3047" y2="1049.8047"/><polygon fill="#7AA2F7" points="813.1088,1018.5547,825.6088,1049.8047,838.1088,1018.5547,825.6088,1031.0547" style="stroke:#7AA2F7;stroke-width:3.125;"/><line style="stroke:#7AA2F7;stroke-width:3.125;" x1="1318.3014" x2="1318.3014" y1="1574.5605" y2="1637.0605"/><polygon fill="#7AA2F7" points="1305.8014,1605.8105,1318.3014,1637.0605,1330.8014,1605.8105,1318.3014,1618.3105" style="stroke:#7AA2F7;stroke-width:3.125;"/><line style="stroke:#7AA2F7;stroke-width:3.125;" x1="1318.3014" x2="1318.3014" y1="1749.4385" y2="1811.9385"/><polygon fill="#7AA2F7" points="1305.8014,1780.6885,1318.3014,1811.9385,1330.8014,1780.6885,1318.3014,1793.1885" style="stroke:#7AA2F7;stroke-width:3.125;"/><line style="stroke:#7AA2F7;stroke-width:3.125;" x1="225.1862" x2="225.1862" y1="812.4268" y2="828.0518"/><line style="stroke:#7AA2F7;stroke-width:3.125;" x1="225.1862" x2="825.6088" y1="828.0518" y2="828.0518"/><line style="stroke:#7AA2F7;stroke-width:3.125;" x1="825.6088" x2="825.6088" y1="828.0518" y2="874.9268"/><polygon fill="#7AA2F7" points="813.1088,843.6768,825.6088,874.9268,838.1088,843.6768,825.6088,856.1768" style="stroke:#7AA2F7;stroke-width:3.125;"/><line style="stroke:#7AA2F7;stroke-width:3.125;" x1="1318.3014" x2="1318.3014" y1="1924.3164" y2="1939.9414"/><line style="stroke:#7AA2F7;stroke-width:3.125;" x1="1318.3014" x2="225.1862" y1="1939.9414" y2="1939.9414"/><line style="stroke:#7AA2F7;stroke-width:3.125;" x1="225.1862" x2="225.1862" y1="1939.9414" y2="1986.8164"/><polygon fill="#7AA2F7" points="212.6862,1955.5664,225.1862,1986.8164,237.6862,1955.5664,225.1862,1968.0664" style="stroke:#7AA2F7;stroke-width:3.125;"/><text fill="#000000" font-family="'Segoe UI', 'Inter', 'sans-serif'" font-size="37.5" lengthAdjust="spacing" textLength="159.9792" x="142.0715" y="200.2563">Customer</text><text fill="#000000" font-family="'Segoe UI', 'Inter', 'sans-serif'" font-size="37.5" lengthAdjust="spacing" textLength="272.937" x="650.7172" y="200.2563">Payment System</text><text fill="#000000" font-family="'Segoe UI', 'Inter', 'sans-serif'" font-size="37.5" lengthAdjust="spacing" textLength="186.6943" x="1221.8292" y="200.2563">Warehouse</text><?plantuml-src JP0_JyD03CNt-nH6BEr0Ap4Gb0nLA2rY8g98pAUBsrYzFv7j50NbmtEjr8hn-TdFF_kEelD3Yx1OBAq8gYnxna13UD0E0oxw8NYZf1xXWrjaQ3Wv5A5uWDefdKX7OwRr89e2ycH4BQifNpZz2CBQglNfK9boXnwTmhjYa2pN7RfZ6hJAm_VRedXwtaoD7GD6XTqekMioPJrebvX-SmvZIvhZkAqCxM5sizhL739gXDc8CZS0vHj6PAi8NsoZs0oPOcNGPvnPJ9UMLvBUsn4sp8chNCdqlS7OqlxCKzJruxQOlYrZbmR1ZDAGEzxW6vl5vHtdmphgh-B_8yfFT4Wdl7hd5Ny0?></g></svg>