<?plantuml 1.2026.2?><svg xmlns="http://www.w3.org/2000/svg" xmlns:xlink="http://www.w3.org/1999/xlink" contentStyleType="text/css" data-diagram-type="DESCRIPTION" height="1753.125px" preserveAspectRatio="none" style="width:1037px;height:1753px;" version="1.1" viewBox="0 0 1037 1753" width="1037.5px" zoomAndPan="magnify"><title>Microservices Component Architecture</title><defs/><g><g class="title" data-source-line="2"><text fill="#000000" font-family="'Segoe UI', 'Inter', 'sans-serif'" font-size="43.75" font-weight="bold" lengthAdjust="spacing" textLength="799.826" x="96.962" y="78.4607">Microservices Component Architecture</text></g><!--cluster Frontend--><g class="cluster" data-qualified-name="Frontend" data-source-line="4" id="ent0002"><path d="M121.875,142.5659 L270.1965,142.5659 A23.4375,23.4375 0 0 1 285.8215,158.1909 L307.6965,211.1938 L1000,211.1938 A15.625,15.625 0 0 1 1015.625,226.8188 L1015.625,426.8159 A15.625,15.625 0 0 1 1000,442.4409 L121.875,442.4409 A15.625,15.625 0 0 1 106.25,426.8159 L106.25,158.1909 A15.625,15.625 0 0 1 121.875,142.5659" fill="none" style="stroke:#000000;stroke-width:4.6875;"/><line style="stroke:#000000;stroke-width:4.6875;" x1="106.25" x2="307.6965" y1="211.1938" y2="211.1938"/><text fill="#000000" font-family="'Segoe UI', 'Inter', 'sans-serif'" font-size="37.5" font-weight="bold" lengthAdjust="spacing" textLength="160.8215" x="118.75" y="189.2822">Frontend</text></g><!--cluster API Layer--><g class="cluster" data-qualified-name="API Layer" data-source-line="9" id="ent0005"><path d="M362.5,595.5659 L516.3696,595.5659 A23.4375,23.4375 0 0 1 531.9946,611.1909 L553.8696,664.1938 L762.5,664.1938 A15.625,15.625 0 0 1 778.125,679.8188 L778.125,879.8159 A15.625,15.625 0 0 1 762.5,895.4409 L362.5,895.4409 A15.625,15.625 0 0 1 346.875,879.8159 L346.875,611.1909 A15.625,15.625 0 0 1 362.5,595.5659" fill="none" style="stroke:#000000;stroke-width:4.6875;"/><line style="stroke:#000000;stroke-width:4.6875;" x1="346.875" x2="553.8696" y1="664.1938" y2="664.1938"/><text fill="#000000" font-family="'Segoe UI', 'Inter', 'sans-serif'" font-size="37.5" font-weight="bold" lengthAdjust="spacing" textLength="166.3696" x="359.375" y="642.2822">API Layer</text></g><!--cluster Core Services--><g class="cluster" data-qualified-name="Core Services" data-source-line="13" id="ent0007"><path d="M34.375,1048.5659 L255.7556,1048.5659 A23.4375,23.4375 0 0 1 271.3806,1064.1909 L293.2556,1117.1938 L893.75,1117.1938 A15.625,15.625 0 0 1 909.375,1132.8188 L909.375,1717.0659 A15.625,15.625 0 0 1 893.75,1732.6909 L34.375,1732.6909 A15.625,15.625 0 0 1 18.75,1717.0659 L18.75,1064.1909 A15.625,15.625 0 0 1 34.375,1048.5659" fill="none" style="stroke:#000000;stroke-width:4.6875;"/><line style="stroke:#000000;stroke-width:4.6875;" x1="18.75" x2="293.2556" y1="1117.1938" y2="1117.1938"/><text fill="#000000" font-family="'Segoe UI', 'Inter', 'sans-serif'" font-size="37.5" font-weight="bold" lengthAdjust="spacing" textLength="233.8806" x="31.25" y="1095.2822">Core Services</text></g><!--entity Web--><g class="entity" data-qualified-name="Frontend.Web" data-source-line="5" id="ent0003"><rect fill="#1A1B26" height="143.6279" rx="15.625" ry="15.625" style="stroke:#7AA2F7;stroke-width:1.5625;" width="381.6589" x="156.0313" y="248.8159"/><rect fill="#1A1B26" height="31.25" style="stroke:#7AA2F7;stroke-width:1.5625;" width="46.875" x="475.1902" y="264.4409"/><rect fill="#1A1B26" height="6.25" style="stroke:#7AA2F7;stroke-width:1.5625;" width="12.5" x="468.9402" y="270.6909"/><rect fill="#1A1B26" height="6.25" style="stroke:#7AA2F7;stroke-width:1.5625;" width="12.5" x="468.9402" y="283.1909"/><text fill="#C0CAF5" font-family="'Segoe UI', 'Inter', 'sans-serif'" font-size="37.5" lengthAdjust="spacing" textLength="256.6589" x="202.9063" y="351.7822">React Web App</text></g><!--entity Mobile--><g class="entity" data-qualified-name="Frontend.Mobile" data-source-line="6" id="ent0004"><rect fill="#1A1B26" height="143.6279" rx="15.625" ry="15.625" style="stroke:#7AA2F7;stroke-width:1.5625;" width="319.0186" x="646.75" y="248.8159"/><rect fill="#1A1B26" height="31.25" style="stroke:#7AA2F7;stroke-width:1.5625;" width="46.875" x="903.2686" y="264.4409"/><rect fill="#1A1B26" height="6.25" style="stroke:#7AA2F7;stroke-width:1.5625;" width="12.5" x="897.0186" y="270.6909"/><rect fill="#1A1B26" height="6.25" style="stroke:#7AA2F7;stroke-width:1.5625;" width="12.5" x="897.0186" y="283.1909"/><text fill="#C0CAF5" font-family="'Segoe UI', 'Inter', 'sans-serif'" font-size="37.5" lengthAdjust="spacing" textLength="194.0186" x="693.625" y="351.7822">Mobile App</text></g><!--entity Gateway--><g class="entity" data-qualified-name="API Layer.Gateway" data-source-line="10" id="ent0006"><rect fill="#1A1B26" height="143.6279" rx="15.625" ry="15.625" style="stroke:#7AA2F7;stroke-width:1.5625;" width="331.8909" x="396.5625" y="701.8159"/><rect fill="#1A1B26" height="31.25" style="stroke:#7AA2F7;stroke-width:1.5625;" width="46.875" x="665.9534" y="717.4409"/><rect fill="#1A1B26" height="6.25" style="stroke:#7AA2F7;stroke-width:1.5625;" width="12.5" x="659.7034" y="723.6909"/><rect fill="#1A1B26" height="6.25" style="stroke:#7AA2F7;stroke-width:1.5625;" width="12.5" x="659.7034" y="736.1909"/><text fill="#C0CAF5" font-family="'Segoe UI', 'Inter', 'sans-serif'" font-size="37.5" lengthAdjust="spacing" textLength="206.8909" x="443.4375" y="804.7822">API Gateway</text></g><!--entity Auth--><g class="entity" data-qualified-name="Core Services.Auth" data-source-line="14" id="ent0008"><rect fill="#1A1B26" height="143.6279" rx="15.625" ry="15.625" style="stroke:#7AA2F7;stroke-width:1.5625;" width="331.1584" x="68.7813" y="1154.8159"/><rect fill="#1A1B26" height="31.25" style="stroke:#7AA2F7;stroke-width:1.5625;" width="46.875" x="337.4397" y="1170.4409"/><rect fill="#1A1B26" height="6.25" style="stroke:#7AA2F7;stroke-width:1.5625;" width="12.5" x="331.1897" y="1176.6909"/><rect fill="#1A1B26" height="6.25" style="stroke:#7AA2F7;stroke-width:1.5625;" width="12.5" x="331.1897" y="1189.1909"/><text fill="#C0CAF5" font-family="'Segoe UI', 'Inter', 'sans-serif'" font-size="37.5" lengthAdjust="spacing" textLength="206.1584" x="115.6563" y="1257.7822">Auth Service</text></g><!--entity Order--><g class="entity" data-qualified-name="Core Services.Order" data-source-line="15" id="ent0009"><rect fill="#1A1B26" height="143.6279" rx="15.625" ry="15.625" style="stroke:#7AA2F7;stroke-width:1.5625;" width="347.8577" x="510.4375" y="1154.8159"/><rect fill="#1A1B26" height="31.25" style="stroke:#7AA2F7;stroke-width:1.5625;" width="46.875" x="795.7952" y="1170.4409"/><rect fill="#1A1B26" height="6.25" style="stroke:#7AA2F7;stroke-width:1.5625;" width="12.5" x="789.5452" y="1176.6909"/><rect fill="#1A1B26" height="6.25" style="stroke:#7AA2F7;stroke-width:1.5625;" width="12.5" x="789.5452" y="1189.1909"/><text fill="#C0CAF5" font-family="'Segoe UI', 'Inter', 'sans-serif'" font-size="37.5" lengthAdjust="spacing" textLength="222.8577" x="557.3125" y="1257.7822">Order Service</text></g><!--entity Inv--><g class="entity" data-qualified-name="Core Services.Inv" data-source-line="16" id="ent0010"><rect fill="#1A1B26" height="143.6279" rx="15.625" ry="15.625" style="stroke:#7AA2F7;stroke-width:1.5625;" width="407.6782" x="352.4063" y="1539.0659"/><rect fill="#1A1B26" height="31.25" style="stroke:#7AA2F7;stroke-width:1.5625;" width="46.875" x="697.5845" y="1554.6909"/><rect fill="#1A1B26" height="6.25" style="stroke:#7AA2F7;stroke-width:1.5625;" width="12.5" x="691.3345" y="1560.9409"/><rect fill="#1A1B26" height="6.25" style="stroke:#7AA2F7;stroke-width:1.5625;" width="12.5" x="691.3345" y="1573.4409"/><text fill="#C0CAF5" font-family="'Segoe UI', 'Inter', 'sans-serif'" font-size="37.5" lengthAdjust="spacing" textLength="282.6782" x="399.2813" y="1642.0322">Inventory Service</text></g><!--link Web to Gateway--><g class="link" data-entity-1="ent0003" data-entity-2="ent0006" data-link-type="dependency" data-source-line="19" id="lnk11"><path d="M380.5625,393.5347 C421.0625,477.4722 480.5114,600.5836 520.8864,684.3023" fill="none" id="Web-to-Gateway" style="stroke:#7AA2F7;stroke-width:3.125;"/><polygon fill="#7AA2F7" points="529.0313,701.1909,528.073,670.4282,522.2439,687.1171,505.5549,681.288,529.0313,701.1909" style="stroke:#7AA2F7;stroke-width:3.125;"/><text fill="#000000" font-family="'Segoe UI', 'Inter', 'sans-serif'" font-size="37.5" lengthAdjust="spacing" textLength="80.9692" x="451.3438" y="536.0322">REST</text></g><!--link Mobile to Gateway--><g class="link" data-entity-1="ent0004" data-entity-2="ent0006" data-link-type="dependency" data-source-line="20" id="lnk12"><path d="M768.1563,393.5347 C722.375,477.4722 654.9819,601.0135 609.2944,684.7323" fill="none" id="Mobile-to-Gateway" style="stroke:#7AA2F7;stroke-width:3.125;"/><polygon fill="#7AA2F7" points="600.3125,701.1909,624.7578,682.4909,607.7974,687.4754,602.8129,670.515,600.3125,701.1909" style="stroke:#7AA2F7;stroke-width:3.125;"/><text fill="#000000" font-family="'Segoe UI', 'Inter', 'sans-serif'" font-size="37.5" lengthAdjust="spacing" textLength="80.9692" x="716.5" y="536.0322">REST</text></g><!--link Gateway to Auth--><g class="link" data-entity-1="ent0006" data-entity-2="ent0008" data-link-type="dependency" data-source-line="22" id="lnk13"><path d="M492.375,846.2847 C464.25,875.7534 432.3438,911.1284 406.25,945.4409 C355.0625,1012.7222 314.4509,1079.5588 281.7634,1137.3401" fill="none" id="Gateway-to-Auth" style="stroke:#7AA2F7;stroke-width:3.125;"/><polygon fill="#7AA2F7" points="272.5313,1153.6597,297.2593,1135.3351,280.2247,1140.06,275.4998,1123.0255,272.5313,1153.6597" style="stroke:#7AA2F7;stroke-width:3.125;"/><text fill="#000000" font-family="'Segoe UI', 'Inter', 'sans-serif'" font-size="37.5" lengthAdjust="spacing" textLength="173.2361" x="409.375" y="989.0322">JWT Verify</text></g><!--link Gateway to Order--><g class="link" data-entity-1="ent0006" data-entity-2="ent0009" data-link-type="dependency" data-source-line="23" id="lnk14"><path d="M581.5313,846.5659 C604.4375,930.4722 637.6893,1052.3835 660.533,1136.1022" fill="none" id="Gateway-to-Order" style="stroke:#7AA2F7;stroke-width:3.125;"/><polygon fill="#7AA2F7" points="665.4688,1154.1909,670.1243,1123.7674,661.3556,1139.117,646.006,1130.3484,665.4688,1154.1909" style="stroke:#7AA2F7;stroke-width:3.125;"/><text fill="#000000" font-family="'Segoe UI', 'Inter', 'sans-serif'" font-size="37.5" lengthAdjust="spacing" textLength="143.6646" x="622.9063" y="989.0322">Dispatch</text></g><!--link Order to Inv--><g class="link" data-entity-1="ent0009" data-entity-2="ent0010" data-link-type="dependency" data-source-line="24" id="lnk15"><path d="M660.5625,1299.9722 C637.5625,1367.8472 608.9337,1452.4049 585.9337,1520.1549" fill="none" id="Order-to-Inv" style="stroke:#7AA2F7;stroke-width:3.125;"/><polygon fill="#7AA2F7" points="579.9063,1537.9097,600.784,1515.2958,584.9291,1523.114,577.1109,1507.2592,579.9063,1537.9097" style="stroke:#7AA2F7;stroke-width:3.125;"/><text fill="#000000" font-family="'Segoe UI', 'Inter', 'sans-serif'" font-size="37.5" lengthAdjust="spacing" textLength="299.8535" x="631.0938" y="1435.7822">gRPC Check Stock</text></g><?plantuml-src ROzBQyCm48Jl-XNRtEtSVIWOzq5AGuCTcaFfGP4tiR0jYTKwnPJ-zrf-G0szxSx7xCxSQQEQhaI8uwtq7jbl7M6hkpRY2bkCNTSsWZKt27kjo7gacrRe8REjimODGqggqeoAEq8Xd5Irl29idiWQHbDku5i0VEGe5SC9pv0wzmdIXpc0lJthuVgYJglu-NCfFUpWLVP8ywcmFql6BzcFbdbUUJ9B2CKSTl5rN2tQQ0n206zK8gt8g0IqCxUXewL-XGSrV0jjekX-2G09v8_5KSoD_Y5YsGCRuoJmSZh2EvA-z2iwPKhWGNidMLLY4W8QlW_WcXyoo2fKDHHiLVqB?></g></svg>