<?plantuml 1.2026.2?><svg xmlns="http://www.w3.org/2000/svg" xmlns:xlink="http://www.w3.org/1999/xlink" contentStyleType="text/css" data-diagram-type="CLASS" height="2446.875px" preserveAspectRatio="none" style="width:659px;height:2446px;" version="1.1" viewBox="0 0 659 2446" width="659.375px" zoomAndPan="magnify"><title>E-commerce Domain Model</title><defs/><g><g class="title" data-source-line="2"><text fill="#000000" font-family="'Segoe UI', 'Inter', 'sans-serif'" font-size="43.75" font-weight="bold" lengthAdjust="spacing" textLength="572.0825" x="31.25" y="78.4607">E-commerce Domain Model</text></g><!--class Product--><g class="entity" data-qualified-name="Product" data-source-line="4" id="ent0002"><rect fill="#1A1B26" height="343.2617" rx="15.625" ry="15.625" style="stroke:#414868;stroke-width:1.5625;" width="308.0688" x="185.1475" y="1647.9722"/><rect fill="#24283B" height="93.75" rx="15.625" ry="15.625" style="stroke:#24283B;stroke-width:1.5625;" width="308.0688" x="185.1475" y="1647.9722"/><rect fill="#24283B" height="15.625" style="stroke:#24283B;stroke-width:1.5625;" width="308.0688" x="185.1475" y="1726.0972"/><rect fill="none" height="343.2617" rx="15.625" ry="15.625" style="stroke:#414868;stroke-width:1.5625;" width="308.0688" x="185.1475" y="1647.9722"/><ellipse cx="267.1354" cy="1694.8472" fill="#ADD1B2" rx="31.25" ry="31.25" style="stroke:#181818;stroke-width:3.125;"/><path d="M271.774,1686.1069 Q272.1158,1685.6187 272.5065,1685.3745 Q272.9459,1685.1304 273.4342,1685.1304 Q274.2643,1685.1304 274.7526,1685.7163 Q275.2897,1686.3022 275.2897,1687.6206 L275.2897,1690.8433 Q275.2897,1692.1616 274.7526,1692.7476 Q274.2643,1693.3335 273.4342,1693.3335 Q272.653,1693.3335 272.2135,1692.894 Q271.774,1692.5034 271.5299,1691.3315 Q271.4323,1690.5503 271.0416,1690.1597 Q270.2604,1689.3296 268.8932,1688.8413 Q267.5748,1688.353 266.2076,1688.353 Q264.5475,1688.353 263.1315,1689.0854 Q261.7155,1689.8179 260.6412,1691.478 Q259.567,1693.0894 259.567,1695.3843 L259.567,1697.8257 Q259.567,1700.5112 261.5201,1702.3179 Q263.5221,1704.1245 266.9889,1704.1245 Q269.0885,1704.1245 270.5533,1703.5874 Q271.3834,1703.2456 272.3112,1702.269 Q272.8971,1701.6831 273.2389,1701.5366 Q273.5807,1701.3413 273.9713,1701.3413 Q274.7526,1701.3413 275.2897,1701.9272 Q275.8756,1702.4644 275.8756,1703.2456 Q275.8756,1704.0269 275.0944,1704.9058 Q273.9713,1706.1753 272.2135,1706.9077 Q269.8698,1707.8843 267.0377,1707.8843 Q263.6686,1707.8843 261.0319,1706.5171 Q258.8346,1705.4429 257.3209,1703.0503 Q255.8073,1700.6577 255.8073,1697.8745 L255.8073,1695.3354 Q255.8073,1692.4058 257.1744,1689.8667 Q258.5416,1687.3276 260.9342,1685.9604 Q263.3756,1684.5933 266.0612,1684.5933 Q267.7213,1684.5933 269.1373,1684.9839 Q270.5533,1685.3257 271.774,1686.1069 Z " fill="#000000"/><text fill="#C0CAF5" font-family="'Segoe UI', 'Inter', 'sans-serif'" font-size="37.5" lengthAdjust="spacing" textLength="129.3457" x="316.2577" y="1710.3745">Product</text><line style="stroke:#414868;stroke-width:1.5625;" x1="188.2725" x2="490.0913" y1="1741.7222" y2="1741.7222"/><g data-visibility-modifier="PRIVATE_FIELD"><rect fill="none" height="18.75" style="stroke:#C82930;stroke-width:3.125;" width="18.75" x="210.1475" y="1774.4736"/></g><text fill="#000000" font-family="'Segoe UI', 'Inter', 'sans-serif'" font-size="37.5" lengthAdjust="spacing" textLength="139.4897" x="244.5225" y="1794.6885">String id</text><g data-visibility-modifier="PRIVATE_FIELD"><rect fill="none" height="18.75" style="stroke:#C82930;stroke-width:3.125;" width="18.75" x="210.1475" y="1824.3516"/></g><text fill="#000000" font-family="'Segoe UI', 'Inter', 'sans-serif'" font-size="37.5" lengthAdjust="spacing" textLength="200.5371" x="244.5225" y="1844.5664">String name</text><g data-visibility-modifier="PRIVATE_FIELD"><rect fill="none" height="18.75" style="stroke:#C82930;stroke-width:3.125;" width="18.75" x="210.1475" y="1874.2295"/></g><text fill="#000000" font-family="'Segoe UI', 'Inter', 'sans-serif'" font-size="37.5" lengthAdjust="spacing" textLength="205.9937" x="244.5225" y="1894.4443">Money price</text><line style="stroke:#414868;stroke-width:1.5625;" x1="188.2725" x2="490.0913" y1="1916.356" y2="1916.356"/><g data-visibility-modifier="PUBLIC_METHOD"><ellipse cx="219.5225" cy="1958.4824" fill="#84BE84" rx="9.375" ry="9.375" style="stroke:#038048;stroke-width:3.125;"/></g><text fill="#000000" font-family="'Segoe UI', 'Inter', 'sans-serif'" font-size="37.5" lengthAdjust="spacing" textLength="229.9438" x="244.5225" y="1969.3223">updateStock()</text></g><!--class Category--><g class="entity" data-qualified-name="Category" data-source-line="11" id="ent0003"><rect fill="#1A1B26" height="193.6279" rx="15.625" ry="15.625" style="stroke:#414868;stroke-width:1.5625;" width="278.6621" x="199.835" y="2231.8472"/><rect fill="#24283B" height="93.75" rx="15.625" ry="15.625" style="stroke:#24283B;stroke-width:1.5625;" width="278.6621" x="199.835" y="2231.8472"/><rect fill="#24283B" height="15.625" style="stroke:#24283B;stroke-width:1.5625;" width="278.6621" x="199.835" y="2309.9722"/><rect fill="none" height="193.6279" rx="15.625" ry="15.625" style="stroke:#414868;stroke-width:1.5625;" width="278.6621" x="199.835" y="2231.8472"/><ellipse cx="259.3613" cy="2278.7222" fill="#ADD1B2" rx="31.25" ry="31.25" style="stroke:#181818;stroke-width:3.125;"/><path d="M264,2269.9819 Q264.3418,2269.4937 264.7324,2269.2495 Q265.1719,2269.0054 265.6602,2269.0054 Q266.4902,2269.0054 266.9785,2269.5913 Q267.5156,2270.1772 267.5156,2271.4956 L267.5156,2274.7183 Q267.5156,2276.0366 266.9785,2276.6226 Q266.4902,2277.2085 265.6602,2277.2085 Q264.8789,2277.2085 264.4395,2276.769 Q264,2276.3784 263.7559,2275.2065 Q263.6582,2274.4253 263.2676,2274.0347 Q262.4863,2273.2046 261.1191,2272.7163 Q259.8008,2272.228 258.4336,2272.228 Q256.7734,2272.228 255.3574,2272.9604 Q253.9414,2273.6929 252.8672,2275.353 Q251.793,2276.9644 251.793,2279.2593 L251.793,2281.7007 Q251.793,2284.3862 253.7461,2286.1929 Q255.748,2287.9995 259.2148,2287.9995 Q261.3145,2287.9995 262.7793,2287.4624 Q263.6094,2287.1206 264.5371,2286.144 Q265.123,2285.5581 265.4648,2285.4116 Q265.8066,2285.2163 266.1973,2285.2163 Q266.9785,2285.2163 267.5156,2285.8022 Q268.1016,2286.3394 268.1016,2287.1206 Q268.1016,2287.9019 267.3203,2288.7808 Q266.1973,2290.0503 264.4395,2290.7827 Q262.0957,2291.7593 259.2637,2291.7593 Q255.8945,2291.7593 253.2578,2290.3921 Q251.0605,2289.3179 249.5469,2286.9253 Q248.0332,2284.5327 248.0332,2281.7495 L248.0332,2279.2104 Q248.0332,2276.2808 249.4004,2273.7417 Q250.7676,2271.2026 253.1602,2269.8354 Q255.6016,2268.4683 258.2871,2268.4683 Q259.9473,2268.4683 261.3633,2268.8589 Q262.7793,2269.2007 264,2269.9819 Z " fill="#000000"/><text fill="#C0CAF5" font-family="'Segoe UI', 'Inter', 'sans-serif'" font-size="37.5" lengthAdjust="spacing" textLength="149.8535" x="303.4922" y="2294.2495">Category</text><line style="stroke:#414868;stroke-width:1.5625;" x1="202.96" x2="475.3721" y1="2325.5972" y2="2325.5972"/><g data-visibility-modifier="PRIVATE_FIELD"><rect fill="none" height="18.75" style="stroke:#C82930;stroke-width:3.125;" width="18.75" x="224.835" y="2358.3486"/></g><text fill="#000000" font-family="'Segoe UI', 'Inter', 'sans-serif'" font-size="37.5" lengthAdjust="spacing" textLength="200.5371" x="259.21" y="2378.5635">String name</text><line style="stroke:#414868;stroke-width:1.5625;" x1="202.96" x2="475.3721" y1="2400.4751" y2="2400.4751"/></g><!--class User--><g class="entity" data-qualified-name="User" data-source-line="15" id="ent0004"><rect fill="#1A1B26" height="243.5059" rx="15.625" ry="15.625" style="stroke:#414868;stroke-width:1.5625;" width="455.7251" x="111.3037" y="145.6909"/><rect fill="#24283B" height="93.75" rx="15.625" ry="15.625" style="stroke:#24283B;stroke-width:1.5625;" width="455.7251" x="111.3037" y="145.6909"/><rect fill="#24283B" height="15.625" style="stroke:#24283B;stroke-width:1.5625;" width="455.7251" x="111.3037" y="223.8159"/><rect fill="none" height="243.5059" rx="15.625" ry="15.625" style="stroke:#414868;stroke-width:1.5625;" width="455.7251" x="111.3037" y="145.6909"/><ellipse cx="289.505" cy="192.5659" fill="#ADD1B2" rx="31.25" ry="31.25" style="stroke:#181818;stroke-width:3.125;"/><path d="M294.1437,183.8257 Q294.4855,183.3374 294.8761,183.0933 Q295.3156,182.8491 295.8038,182.8491 Q296.6339,182.8491 297.1222,183.4351 Q297.6593,184.021 297.6593,185.3394 L297.6593,188.562 Q297.6593,189.8804 297.1222,190.4663 Q296.6339,191.0522 295.8038,191.0522 Q295.0226,191.0522 294.5831,190.6128 Q294.1437,190.2222 293.8995,189.0503 Q293.8019,188.269 293.4113,187.8784 Q292.63,187.0483 291.2628,186.5601 Q289.9445,186.0718 288.5773,186.0718 Q286.9171,186.0718 285.5011,186.8042 Q284.0851,187.5366 283.0109,189.1968 Q281.9366,190.8081 281.9366,193.103 L281.9366,195.5444 Q281.9366,198.23 283.8898,200.0366 Q285.8917,201.8433 289.3585,201.8433 Q291.4581,201.8433 292.923,201.3062 Q293.7531,200.9644 294.6808,199.9878 Q295.2667,199.4019 295.6085,199.2554 Q295.9503,199.0601 296.3409,199.0601 Q297.1222,199.0601 297.6593,199.646 Q298.2452,200.1831 298.2452,200.9644 Q298.2452,201.7456 297.464,202.6245 Q296.3409,203.894 294.5831,204.6265 Q292.2394,205.603 289.4073,205.603 Q286.0382,205.603 283.4015,204.2358 Q281.2042,203.1616 279.6906,200.769 Q278.1769,198.3765 278.1769,195.5933 L278.1769,193.0542 Q278.1769,190.1245 279.5441,187.5854 Q280.9113,185.0464 283.3038,183.6792 Q285.7452,182.312 288.4308,182.312 Q290.0909,182.312 291.507,182.7026 Q292.923,183.0444 294.1437,183.8257 Z " fill="#000000"/><text fill="#C0CAF5" font-family="'Segoe UI', 'Inter', 'sans-serif'" font-size="37.5" lengthAdjust="spacing" textLength="74.3225" x="348.88" y="208.0933">User</text><line style="stroke:#414868;stroke-width:1.5625;" x1="114.4287" x2="563.9038" y1="239.4409" y2="239.4409"/><g data-visibility-modifier="PRIVATE_FIELD"><rect fill="none" height="18.75" style="stroke:#C82930;stroke-width:3.125;" width="18.75" x="136.3037" y="272.1924"/></g><text fill="#000000" font-family="'Segoe UI', 'Inter', 'sans-serif'" font-size="37.5" lengthAdjust="spacing" textLength="197.4792" x="170.6787" y="292.4072">String email</text><g data-visibility-modifier="PRIVATE_FIELD"><rect fill="none" height="18.75" style="stroke:#C82930;stroke-width:3.125;" width="18.75" x="136.3037" y="322.0703"/></g><text fill="#000000" font-family="'Segoe UI', 'Inter', 'sans-serif'" font-size="37.5" lengthAdjust="spacing" textLength="377.6001" x="170.6787" y="342.2852">Address billingAddress</text><line style="stroke:#414868;stroke-width:1.5625;" x1="114.4287" x2="563.9038" y1="364.1968" y2="364.1968"/></g><!--class Order--><g class="entity" data-qualified-name="Order" data-source-line="20" id="ent0005"><rect fill="#1A1B26" height="293.3838" rx="15.625" ry="15.625" style="stroke:#414868;stroke-width:1.5625;" width="327.7527" x="175.3037" y="629.8159"/><rect fill="#24283B" height="93.75" rx="15.625" ry="15.625" style="stroke:#24283B;stroke-width:1.5625;" width="327.7527" x="175.3037" y="629.8159"/><rect fill="#24283B" height="15.625" style="stroke:#24283B;stroke-width:1.5625;" width="327.7527" x="175.3037" y="707.9409"/><rect fill="none" height="293.3838" rx="15.625" ry="15.625" style="stroke:#414868;stroke-width:1.5625;" width="327.7527" x="175.3037" y="629.8159"/><ellipse cx="281.1375" cy="676.6909" fill="#ADD1B2" rx="31.25" ry="31.25" style="stroke:#181818;stroke-width:3.125;"/><path d="M285.7761,667.9507 Q286.1179,667.4624 286.5085,667.2183 Q286.948,666.9741 287.4363,666.9741 Q288.2664,666.9741 288.7546,667.5601 Q289.2917,668.146 289.2917,669.4644 L289.2917,672.687 Q289.2917,674.0054 288.7546,674.5913 Q288.2664,675.1772 287.4363,675.1772 Q286.655,675.1772 286.2156,674.7378 Q285.7761,674.3472 285.532,673.1753 Q285.4343,672.394 285.0437,672.0034 Q284.2625,671.1733 282.8953,670.6851 Q281.5769,670.1968 280.2097,670.1968 Q278.5496,670.1968 277.1335,670.9292 Q275.7175,671.6616 274.6433,673.3218 Q273.5691,674.9331 273.5691,677.228 L273.5691,679.6694 Q273.5691,682.355 275.5222,684.1616 Q277.5242,685.9683 280.991,685.9683 Q283.0906,685.9683 284.5554,685.4312 Q285.3855,685.0894 286.3132,684.1128 Q286.8992,683.5269 287.241,683.3804 Q287.5828,683.1851 287.9734,683.1851 Q288.7546,683.1851 289.2917,683.771 Q289.8777,684.3081 289.8777,685.0894 Q289.8777,685.8706 289.0964,686.7495 Q287.9734,688.019 286.2156,688.7515 Q283.8718,689.728 281.0398,689.728 Q277.6707,689.728 275.0339,688.3608 Q272.8367,687.2866 271.323,684.894 Q269.8093,682.5015 269.8093,679.7183 L269.8093,677.1792 Q269.8093,674.2495 271.1765,671.7104 Q272.5437,669.1714 274.9363,667.8042 Q277.3777,666.437 280.0632,666.437 Q281.7234,666.437 283.1394,666.8276 Q284.5554,667.1694 285.7761,667.9507 Z " fill="#000000"/><text fill="#C0CAF5" font-family="'Segoe UI', 'Inter', 'sans-serif'" font-size="37.5" lengthAdjust="spacing" textLength="96.0388" x="335.5588" y="692.2183">Order</text><line style="stroke:#414868;stroke-width:1.5625;" x1="178.4287" x2="499.9314" y1="723.5659" y2="723.5659"/><g data-visibility-modifier="PRIVATE_FIELD"><rect fill="none" height="18.75" style="stroke:#C82930;stroke-width:3.125;" width="18.75" x="200.3037" y="756.3174"/></g><text fill="#000000" font-family="'Segoe UI', 'Inter', 'sans-serif'" font-size="37.5" lengthAdjust="spacing" textLength="248.3093" x="234.6787" y="776.5322">Date createdAt</text><g data-visibility-modifier="PRIVATE_FIELD"><rect fill="none" height="18.75" style="stroke:#C82930;stroke-width:3.125;" width="18.75" x="200.3037" y="806.1953"/></g><text fill="#000000" font-family="'Segoe UI', 'Inter', 'sans-serif'" font-size="37.5" lengthAdjust="spacing" textLength="209.3628" x="234.6787" y="826.4102">Status status</text><line style="stroke:#414868;stroke-width:1.5625;" x1="178.4287" x2="499.9314" y1="848.3218" y2="848.3218"/><g data-visibility-modifier="PUBLIC_METHOD"><ellipse cx="209.6787" cy="890.4482" fill="#84BE84" rx="9.375" ry="9.375" style="stroke:#038048;stroke-width:3.125;"/></g><text fill="#000000" font-family="'Segoe UI', 'Inter', 'sans-serif'" font-size="37.5" lengthAdjust="spacing" textLength="249.6277" x="234.6787" y="901.2881">calculateTotal()</text></g><!--class OrderItem--><g class="entity" data-qualified-name="OrderItem" data-source-line="26" id="ent0006"><rect fill="#1A1B26" height="243.5059" rx="15.625" ry="15.625" style="stroke:#414868;stroke-width:1.5625;" width="347.3083" x="165.5225" y="1163.8159"/><rect fill="#24283B" height="93.75" rx="15.625" ry="15.625" style="stroke:#24283B;stroke-width:1.5625;" width="347.3083" x="165.5225" y="1163.8159"/><rect fill="#24283B" height="15.625" style="stroke:#24283B;stroke-width:1.5625;" width="347.3083" x="165.5225" y="1241.9409"/><rect fill="none" height="243.5059" rx="15.625" ry="15.625" style="stroke:#414868;stroke-width:1.5625;" width="347.3083" x="165.5225" y="1163.8159"/><ellipse cx="246.5875" cy="1210.6909" fill="#ADD1B2" rx="31.25" ry="31.25" style="stroke:#181818;stroke-width:3.125;"/><path d="M251.2262,1201.9507 Q251.568,1201.4624 251.9586,1201.2183 Q252.3981,1200.9741 252.8864,1200.9741 Q253.7164,1200.9741 254.2047,1201.5601 Q254.7418,1202.146 254.7418,1203.4644 L254.7418,1206.687 Q254.7418,1208.0054 254.2047,1208.5913 Q253.7164,1209.1772 252.8864,1209.1772 Q252.1051,1209.1772 251.6656,1208.7378 Q251.2262,1208.3472 250.9821,1207.1753 Q250.8844,1206.394 250.4938,1206.0034 Q249.7125,1205.1733 248.3453,1204.6851 Q247.027,1204.1968 245.6598,1204.1968 Q243.9996,1204.1968 242.5836,1204.9292 Q241.1676,1205.6616 240.0934,1207.3218 Q239.0192,1208.9331 239.0192,1211.228 L239.0192,1213.6694 Q239.0192,1216.355 240.9723,1218.1616 Q242.9742,1219.9683 246.441,1219.9683 Q248.5406,1219.9683 250.0055,1219.4312 Q250.8356,1219.0894 251.7633,1218.1128 Q252.3492,1217.5269 252.691,1217.3804 Q253.0328,1217.1851 253.4235,1217.1851 Q254.2047,1217.1851 254.7418,1217.771 Q255.3278,1218.3081 255.3278,1219.0894 Q255.3278,1219.8706 254.5465,1220.7495 Q253.4235,1222.019 251.6656,1222.7515 Q249.3219,1223.728 246.4899,1223.728 Q243.1207,1223.728 240.484,1222.3608 Q238.2867,1221.2866 236.7731,1218.894 Q235.2594,1216.5015 235.2594,1213.7183 L235.2594,1211.1792 Q235.2594,1208.2495 236.6266,1205.7104 Q237.9938,1203.1714 240.3864,1201.8042 Q242.8278,1200.437 245.5133,1200.437 Q247.1735,1200.437 248.5895,1200.8276 Q250.0055,1201.1694 251.2262,1201.9507 Z " fill="#000000"/><text fill="#C0CAF5" font-family="'Segoe UI', 'Inter', 'sans-serif'" font-size="37.5" lengthAdjust="spacing" textLength="170.636" x="295.5048" y="1226.2183">OrderItem</text><line style="stroke:#414868;stroke-width:1.5625;" x1="168.6475" x2="509.7058" y1="1257.5659" y2="1257.5659"/><g data-visibility-modifier="PRIVATE_FIELD"><rect fill="none" height="18.75" style="stroke:#C82930;stroke-width:3.125;" width="18.75" x="190.5225" y="1290.3174"/></g><text fill="#000000" font-family="'Segoe UI', 'Inter', 'sans-serif'" font-size="37.5" lengthAdjust="spacing" textLength="189.5325" x="224.8975" y="1310.5322">int quantity</text><g data-visibility-modifier="PRIVATE_FIELD"><rect fill="none" height="18.75" style="stroke:#C82930;stroke-width:3.125;" width="18.75" x="190.5225" y="1340.1953"/></g><text fill="#000000" font-family="'Segoe UI', 'Inter', 'sans-serif'" font-size="37.5" lengthAdjust="spacing" textLength="269.1833" x="224.8975" y="1360.4102">Money unitPrice</text><line style="stroke:#414868;stroke-width:1.5625;" x1="168.6475" x2="509.7058" y1="1382.3218" y2="1382.3218"/></g><!--link Product to Category--><g class="link" data-entity-1="ent0002" data-entity-2="ent0003" data-link-type="association" data-source-line="31" id="lnk7"><path codeLine="31" d="M339.1787,1991.5347 C339.1787,2071.4409 339.1787,2163.8159 339.1787,2231.1597" fill="none" id="Product-Category" style="stroke:#7AA2F7;stroke-width:3.125;"/><text fill="#000000" font-family="'Segoe UI', 'Inter', 'sans-serif'" font-size="37.5" lengthAdjust="spacing" textLength="176.8799" x="342.3037" y="2128.5635">belongs to</text><text fill="#000000" font-family="'Segoe UI', 'Inter', 'sans-serif'" font-size="37.5" lengthAdjust="spacing" textLength="15.6372" x="322.5531" y="2057.225">*</text><text fill="#000000" font-family="'Segoe UI', 'Inter', 'sans-serif'" font-size="37.5" lengthAdjust="spacing" textLength="20.2148" x="318.4331" y="2197.1311">1</text></g><!--link User to Order--><g class="link" data-entity-1="ent0004" data-entity-2="ent0005" data-link-type="association" data-source-line="32" id="lnk8"><path codeLine="32" d="M339.1787,389.7222 C339.1787,461.4722 339.1787,553.2534 339.1787,629.0972" fill="none" id="User-Order" style="stroke:#7AA2F7;stroke-width:3.125;"/><text fill="#000000" font-family="'Segoe UI', 'Inter', 'sans-serif'" font-size="37.5" lengthAdjust="spacing" textLength="103.0518" x="342.3037" y="526.5322">places</text><text fill="#000000" font-family="'Segoe UI', 'Inter', 'sans-serif'" font-size="37.5" lengthAdjust="spacing" textLength="20.2148" x="318.9993" y="454.5713">1</text><text fill="#000000" font-family="'Segoe UI', 'Inter', 'sans-serif'" font-size="37.5" lengthAdjust="spacing" textLength="15.6372" x="322.3094" y="595.6988">*</text></g><!--reverse link Order to OrderItem--><g class="link" data-entity-1="ent0005" data-entity-2="ent0006" data-link-type="composition" data-source-line="33" id="lnk9"><path codeLine="33" d="M339.1787,961.2222 C339.1787,1036.9722 339.1787,1091.1909 339.1787,1162.9409" fill="none" id="Order-backto-OrderItem" style="stroke:#7AA2F7;stroke-width:3.125;"/><polygon fill="#7AA2F7" points="339.1787,923.7222,326.6787,942.4722,339.1787,961.2222,351.6787,942.4722,339.1787,923.7222" style="stroke:#7AA2F7;stroke-width:3.125;"/><text fill="#000000" font-family="'Segoe UI', 'Inter', 'sans-serif'" font-size="37.5" lengthAdjust="spacing" textLength="138.5193" x="342.3037" y="1060.5322">contains</text><text fill="#000000" font-family="'Segoe UI', 'Inter', 'sans-serif'" font-size="37.5" lengthAdjust="spacing" textLength="20.2148" x="319.2132" y="988.3975">1</text><text fill="#000000" font-family="'Segoe UI', 'Inter', 'sans-serif'" font-size="37.5" lengthAdjust="spacing" textLength="15.6372" x="322.066" y="1128.9747">*</text></g><!--link OrderItem to Product--><g class="link" data-entity-1="ent0006" data-entity-2="ent0002" data-link-type="association" data-source-line="34" id="lnk10"><path codeLine="34" d="M339.1787,1408.4722 C339.1787,1479.0034 339.1787,1569.4097 339.1787,1647.1597" fill="none" id="OrderItem-Product" style="stroke:#7AA2F7;stroke-width:3.125;"/><text fill="#000000" font-family="'Segoe UI', 'Inter', 'sans-serif'" font-size="37.5" lengthAdjust="spacing" textLength="170.7092" x="342.3037" y="1544.6885">references</text><text fill="#000000" font-family="'Segoe UI', 'Inter', 'sans-serif'" font-size="37.5" lengthAdjust="spacing" textLength="15.6372" x="322.3099" y="1472.5008">*</text><text fill="#000000" font-family="'Segoe UI', 'Inter', 'sans-serif'" font-size="37.5" lengthAdjust="spacing" textLength="20.2148" x="319.2129" y="1613.4164">1</text></g><?plantuml-src NL51JWCn3Bpd5MPFKBHRSTrRHJbmgAXKU42Qc1BX94lY72h4tt7JRRjjBf77u_5aSkU2eM8HkcwkSqREyo6XTyMt_8KUkw5uKkoO45vQ4xt7P12MqMiNO1KjabA6P1JMATfY67uLo6bXmyc57JXxNGVjSKHMCU0UXkJC4Nc4CbZDkE5elkyVrDz9-bd0NKpxM-sgTMPzP4ot31IVD48BQnCAR-k8f3UMb_ctP2S2Iza99g5STi5dLSqbGwxNwDbeCeM4zXvPqzHs5Nnbz6TH5nX-YWuIwFugX18ShsiGCdrAifarqBRGF3MN17hO8iMmoy1HrHSVsWUMa8ylw64WRJ2hOtdepwQ4wgW74mFB9uwq2auMdZpqaF0J4mOH_0S0?></g></svg>