<?plantuml 1.2026.2?><svg xmlns="http://www.w3.org/2000/svg" xmlns:xlink="http://www.w3.org/1999/xlink" contentStyleType="text/css" data-diagram-type="DESCRIPTION" height="1915.625px" preserveAspectRatio="none" style="width:1409px;height:1915px;" version="1.1" viewBox="0 0 1409 1915" width="1409.375px" zoomAndPan="magnify"><title>Infrastructure Deployment</title><defs/><g><g class="title" data-source-line="2"><text fill="#000000" font-family="'Segoe UI', 'Inter', 'sans-serif'" font-size="43.75" font-weight="bold" lengthAdjust="spacing" textLength="548.8617" x="408.3817" y="78.4607">Infrastructure Deployment</text></g><!--cluster AWS Cloud--><g class="cluster" data-qualified-name="AWS Cloud" data-source-line="4" id="ent0002"><polygon fill="none" points="50,642.4409,81.25,611.1909,1246.875,611.1909,1246.875,1832.8159,1215.625,1864.0659,50,1864.0659,50,642.4409" style="stroke:#181818;stroke-width:3.125;"/><line style="stroke:#181818;stroke-width:3.125;" x1="1215.625" x2="1246.875" y1="642.4409" y2="611.1909"/><line style="stroke:#181818;stroke-width:3.125;" x1="50" x2="1215.625" y1="642.4409" y2="642.4409"/><line style="stroke:#181818;stroke-width:3.125;" x1="1215.625" x2="1215.625" y1="642.4409" y2="1864.0659"/><text fill="#000000" font-family="'Segoe UI', 'Inter', 'sans-serif'" font-size="37.5" font-weight="bold" lengthAdjust="spacing" textLength="198.3032" x="536.7859" y="692.2822">AWS Cloud</text></g><!--cluster EC2--><g class="cluster" data-qualified-name="AWS Cloud.EC2" data-source-line="5" id="ent0003"><polygon fill="none" points="150,814.3159,181.25,783.0659,1146.875,783.0659,1146.875,1117.3159,1115.625,1148.5659,150,1148.5659,150,814.3159" style="stroke:#181818;stroke-width:3.125;"/><line style="stroke:#181818;stroke-width:3.125;" x1="1115.625" x2="1146.875" y1="814.3159" y2="783.0659"/><line style="stroke:#181818;stroke-width:3.125;" x1="150" x2="1115.625" y1="814.3159" y2="814.3159"/><line style="stroke:#181818;stroke-width:3.125;" x1="1115.625" x2="1115.625" y1="814.3159" y2="1148.5659"/><text fill="#000000" font-family="'Segoe UI', 'Inter', 'sans-serif'" font-size="37.5" font-weight="bold" lengthAdjust="spacing" textLength="198.3215" x="536.7767" y="864.1572">EC2 Cluster</text></g><!--cluster RDS--><g class="cluster" data-qualified-name="AWS Cloud.RDS" data-source-line="10" id="ent0006"><polygon fill="none" points="675,1382.9409,706.25,1351.6909,1140.625,1351.6909,1140.625,1732.8159,1109.375,1764.0659,675,1764.0659,675,1382.9409" style="stroke:#181818;stroke-width:3.125;"/><line style="stroke:#181818;stroke-width:3.125;" x1="1109.375" x2="1140.625" y1="1382.9409" y2="1351.6909"/><line style="stroke:#181818;stroke-width:3.125;" x1="675" x2="1109.375" y1="1382.9409" y2="1382.9409"/><line style="stroke:#181818;stroke-width:3.125;" x1="1109.375" x2="1109.375" y1="1382.9409" y2="1764.0659"/><text fill="#000000" font-family="'Segoe UI', 'Inter', 'sans-serif'" font-size="37.5" font-style="italic" lengthAdjust="spacing" textLength="191.748" x="799.4385" y="1432.7822">&#171;Database&#187;</text><text fill="#000000" font-family="'Segoe UI', 'Inter', 'sans-serif'" font-size="37.5" font-weight="bold" lengthAdjust="spacing" textLength="230.3101" x="780.1575" y="1482.6602">RDS Instance</text></g><!--cluster Client Device--><g class="cluster" data-qualified-name="Client Device" data-source-line="15" id="ent0008"><polygon fill="none" points="890.625,173.8159,921.875,142.5659,1356.25,142.5659,1356.25,426.8159,1325,458.0659,890.625,458.0659,890.625,173.8159" style="stroke:#181818;stroke-width:3.125;"/><line style="stroke:#181818;stroke-width:3.125;" x1="1325" x2="1356.25" y1="173.8159" y2="142.5659"/><line style="stroke:#181818;stroke-width:3.125;" x1="890.625" x2="1325" y1="173.8159" y2="173.8159"/><line style="stroke:#181818;stroke-width:3.125;" x1="1325" x2="1325" y1="173.8159" y2="458.0659"/><text fill="#000000" font-family="'Segoe UI', 'Inter', 'sans-serif'" font-size="37.5" font-weight="bold" lengthAdjust="spacing" textLength="229.834" x="996.0205" y="223.6572">Client Device</text></g><!--entity Order Service--><g class="entity" data-qualified-name="AWS Cloud.EC2.Order Service" data-source-line="6" id="ent0004"><rect fill="#1A1B26" height="143.6279" rx="15.625" ry="15.625" style="stroke:#7AA2F7;stroke-width:1.5625;" width="347.8577" x="226.0625" y="929.9409"/><rect fill="#1A1B26" height="31.25" style="stroke:#7AA2F7;stroke-width:1.5625;" width="46.875" x="511.4202" y="945.5659"/><rect fill="#1A1B26" height="6.25" style="stroke:#7AA2F7;stroke-width:1.5625;" width="12.5" x="505.1702" y="951.8159"/><rect fill="#1A1B26" height="6.25" style="stroke:#7AA2F7;stroke-width:1.5625;" width="12.5" x="505.1702" y="964.3159"/><text fill="#C0CAF5" font-family="'Segoe UI', 'Inter', 'sans-serif'" font-size="37.5" lengthAdjust="spacing" textLength="222.8577" x="272.9375" y="1032.9072">Order Service</text></g><!--entity User Service--><g class="entity" data-qualified-name="AWS Cloud.EC2.User Service" data-source-line="7" id="ent0005"><rect fill="#1A1B26" height="143.6279" rx="15.625" ry="15.625" style="stroke:#7AA2F7;stroke-width:1.5625;" width="326.1414" x="683.8125" y="929.9409"/><rect fill="#1A1B26" height="31.25" style="stroke:#7AA2F7;stroke-width:1.5625;" width="46.875" x="947.4539" y="945.5659"/><rect fill="#1A1B26" height="6.25" style="stroke:#7AA2F7;stroke-width:1.5625;" width="12.5" x="941.2039" y="951.8159"/><rect fill="#1A1B26" height="6.25" style="stroke:#7AA2F7;stroke-width:1.5625;" width="12.5" x="941.2039" y="964.3159"/><text fill="#C0CAF5" font-family="'Segoe UI', 'Inter', 'sans-serif'" font-size="37.5" lengthAdjust="spacing" textLength="201.1414" x="730.6875" y="1032.9072">User Service</text></g><!--entity Postgres--><g class="entity" data-qualified-name="AWS Cloud.RDS.Postgres" data-source-line="11" id="ent0007"><path d="M772.625,1579.8159 C772.625,1548.5659 874.9932,1548.5659 874.9932,1548.5659 C874.9932,1548.5659 977.3613,1548.5659 977.3613,1579.8159 L977.3613,1657.8188 C977.3613,1689.0688 874.9932,1689.0688 874.9932,1689.0688 C874.9932,1689.0688 772.625,1689.0688 772.625,1657.8188 L772.625,1579.8159" fill="#F1F1F1" style="stroke:#181818;stroke-width:1.5625;"/><path d="M772.625,1579.8159 C772.625,1611.0659 874.9932,1611.0659 874.9932,1611.0659 C874.9932,1611.0659 977.3613,1611.0659 977.3613,1579.8159" fill="none" style="stroke:#181818;stroke-width:1.5625;"/><text fill="#000000" font-family="'Segoe UI', 'Inter', 'sans-serif'" font-size="37.5" lengthAdjust="spacing" textLength="142.2363" x="803.875" y="1664.0322">Postgres</text></g><!--entity Browser--><g class="entity" data-qualified-name="Client Device.Browser" data-source-line="16" id="ent0009"><rect fill="#1A1B26" height="143.6279" rx="15.625" ry="15.625" style="stroke:#7AA2F7;stroke-width:1.5625;" width="344.1223" x="949.8125" y="264.4409"/><rect fill="#1A1B26" height="31.25" style="stroke:#7AA2F7;stroke-width:1.5625;" width="46.875" x="1231.4348" y="280.0659"/><rect fill="#1A1B26" height="6.25" style="stroke:#7AA2F7;stroke-width:1.5625;" width="12.5" x="1225.1848" y="286.3159"/><rect fill="#1A1B26" height="6.25" style="stroke:#7AA2F7;stroke-width:1.5625;" width="12.5" x="1225.1848" y="298.8159"/><text fill="#C0CAF5" font-family="'Segoe UI', 'Inter', 'sans-serif'" font-size="37.5" lengthAdjust="spacing" textLength="219.1223" x="996.6875" y="367.4072">Web Browser</text></g><!--link Browser to EC2--><g class="link" data-entity-1="ent0009" data-entity-2="ent0003" data-link-type="association" data-source-line="19" id="lnk10"><path d="M1121.875,408.6909 C1121.875,491.9878 1121.875,636.1987 1121.875,761.1831 C1121.875,765.0889 1121.875,768.9759 1121.875,772.8416 C1121.875,774.7745 1121.875,776.7021 1121.875,778.624 C1121.875,779.585 1121.875,780.5446 1121.875,781.5027" fill="none" id="Browser-EC2" style="stroke:#7AA2F7;stroke-width:3.125;"/><text fill="#000000" font-family="'Segoe UI', 'Inter', 'sans-serif'" font-size="37.5" lengthAdjust="spacing" textLength="106.842" x="1125" y="551.6572">HTTPS</text></g><!--link EC2 to RDS--><g class="link" data-entity-1="ent0003" data-entity-2="ent0006" data-link-type="association" data-source-line="20" id="lnk11"><path d="M1118.1377,1151.2473 C1117.7266,1167.3048 1117.2946,1184.1758 1116.8488,1201.5889 C1115.957,1236.415 1115.0098,1273.4097 1114.0625,1310.4019 C1113.8257,1319.6499 1113.5889,1328.8978 1113.3529,1338.1116 C1113.2939,1340.4151 1113.235,1342.7164 1113.1761,1345.0151 C1113.1467,1346.1644 1113.1173,1347.3131 1113.0879,1348.461 C1113.0732,1349.035 1113.0585,1349.6088 1113.0438,1350.1824" fill="none" id="EC2-RDS" style="stroke:#7AA2F7;stroke-width:3.125;"/><text fill="#000000" font-family="'Segoe UI', 'Inter', 'sans-serif'" font-size="37.5" lengthAdjust="spacing" textLength="84.3933" x="1119.0313" y="1267.1572">JDBC</text></g><?plantuml-src RKzDImCn4BtdLuovxnPwBALWDu9wiRYL7iH3kZlQG3wMp4GHwNytsUv24USGthpClFVcnlZEfXwXhXUQ29aMGqHdagluX0xh8JahsB15UF3lKHF7r76A20e76xuTUXR2XomXRmyjD3QaNiAFW5mN-gvPPZeHOvIW2Kf_-I_L1JS4drL0FiKU8xGOFqs7yh-95_exS1xVAxTdrUQanDhdaM9NYFKQb6Pzr8ImsLovzpChTu7u8oBDikVvgiQQugrmD9rsNmzuX6qCNpdGMt6PS5cR85JLUEeAxlVxNIiApbI9iu97jMr-0G00?></g></svg>