<?plantuml 1.2026.2?><svg xmlns="http://www.w3.org/2000/svg" xmlns:xlink="http://www.w3.org/1999/xlink" contentStyleType="text/css" data-diagram-type="STATE" height="2621.875px" preserveAspectRatio="none" style="width:1015px;height:2621px;" version="1.1" viewBox="0 0 1015 2621" width="1015.625px" zoomAndPan="magnify"><title>Order Fulfillment Lifecycle</title><defs/><g><g class="title" data-source-line="2"><text fill="#000000" font-family="'Segoe UI', 'Inter', 'sans-serif'" font-size="43.75" font-weight="bold" lengthAdjust="spacing" textLength="542.7307" x="216.1328" y="78.4607">Order Fulfillment Lifecycle</text></g><g class="start_entity" data-qualified-name=".start." data-source-line="4" id="ent0002"><ellipse cx="669.8125" cy="173.8159" fill="#222222" rx="31.25" ry="31.25" style="stroke:#222222;stroke-width:3.125;"/></g><g class="entity" data-qualified-name="Created" id="ent0003"><rect fill="#F1F1F1" height="156.25" rx="15.625" ry="15.625" style="stroke:#181818;stroke-width:1.5625;" width="191.8457" x="573.9063" y="395.6909"/><line style="stroke:#181818;stroke-width:1.5625;" x1="573.9063" x2="765.752" y1="476.8188" y2="476.8188"/><text fill="#000000" font-family="'Segoe UI', 'Inter', 'sans-serif'" font-size="37.5" lengthAdjust="spacing" textLength="129.3457" x="605.1563" y="451.7822">Created</text></g><g class="entity" data-qualified-name="Paid" id="ent0005"><rect fill="#F1F1F1" height="156.25" rx="15.625" ry="15.625" style="stroke:#181818;stroke-width:1.5625;" width="156.25" x="376.0625" y="792.5659"/><line style="stroke:#181818;stroke-width:1.5625;" x1="376.0625" x2="532.3125" y1="873.6938" y2="873.6938"/><text fill="#000000" font-family="'Segoe UI', 'Inter', 'sans-serif'" font-size="37.5" lengthAdjust="spacing" textLength="71.2463" x="418.5643" y="848.6572">Paid</text></g><g class="entity" data-qualified-name="Cancelled" id="ent0007"><rect fill="#F1F1F1" height="156.25" rx="15.625" ry="15.625" style="stroke:#181818;stroke-width:1.5625;" width="222.8088" x="774.0625" y="1042.5659"/><line style="stroke:#181818;stroke-width:1.5625;" x1="774.0625" x2="996.8713" y1="1123.6938" y2="1123.6938"/><text fill="#000000" font-family="'Segoe UI', 'Inter', 'sans-serif'" font-size="37.5" lengthAdjust="spacing" textLength="160.3088" x="805.3125" y="1098.6572">Cancelled</text></g><g class="entity" data-qualified-name="Processing" id="ent0009"><rect fill="#F1F1F1" height="156.25" rx="15.625" ry="15.625" style="stroke:#181818;stroke-width:1.5625;" width="239.6545" x="21.875" y="1292.5659"/><line style="stroke:#181818;stroke-width:1.5625;" x1="21.875" x2="261.5295" y1="1373.6938" y2="1373.6938"/><text fill="#000000" font-family="'Segoe UI', 'Inter', 'sans-serif'" font-size="37.5" lengthAdjust="spacing" textLength="177.1545" x="53.125" y="1348.6572">Processing</text></g><g class="entity" data-qualified-name="Refunded" id="ent0011"><rect fill="#F1F1F1" height="156.25" rx="15.625" ry="15.625" style="stroke:#181818;stroke-width:1.5625;" width="222.4976" x="433.5938" y="1542.5659"/><line style="stroke:#181818;stroke-width:1.5625;" x1="433.5938" x2="656.0913" y1="1623.6938" y2="1623.6938"/><text fill="#000000" font-family="'Segoe UI', 'Inter', 'sans-serif'" font-size="37.5" lengthAdjust="spacing" textLength="159.9976" x="464.8438" y="1598.6572">Refunded</text></g><g class="entity" data-qualified-name="Shipped" id="ent0013"><rect fill="#F1F1F1" height="156.25" rx="15.625" ry="15.625" style="stroke:#181818;stroke-width:1.5625;" width="198.5107" x="67.4375" y="1792.5659"/><line style="stroke:#181818;stroke-width:1.5625;" x1="67.4375" x2="265.9482" y1="1873.6938" y2="1873.6938"/><text fill="#000000" font-family="'Segoe UI', 'Inter', 'sans-serif'" font-size="37.5" lengthAdjust="spacing" textLength="136.0107" x="98.6875" y="1848.6572">Shipped</text></g><g class="entity" data-qualified-name="Delivered" id="ent0015"><rect fill="#F1F1F1" height="156.25" rx="15.625" ry="15.625" style="stroke:#181818;stroke-width:1.5625;" width="218.8721" x="116.6563" y="2189.4409"/><line style="stroke:#181818;stroke-width:1.5625;" x1="116.6563" x2="335.5283" y1="2270.5688" y2="2270.5688"/><text fill="#000000" font-family="'Segoe UI', 'Inter', 'sans-serif'" font-size="37.5" lengthAdjust="spacing" textLength="156.3721" x="147.9063" y="2245.5322">Delivered</text></g><g class="end_entity" data-qualified-name=".end." data-source-line="14" id="ent0017"><ellipse cx="544.8125" cy="2570.6909" fill="none" rx="34.375" ry="34.375" style="stroke:#222222;stroke-width:3.125;"/><ellipse cx="544.8125" cy="2570.6909" fill="#222222" rx="18.75" ry="18.75" style="stroke:#222222;stroke-width:3.125;"/></g><!--link *start* to Created--><g class="link" data-entity-1="ent0002" data-entity-2="ent0003" data-link-type="dependency" data-source-line="4" id="lnk4"><path d="M669.8125,206.1909 C669.8125,249.7222 669.8125,314.2847 669.8125,375.8472" fill="none" id="*start*-to-Created" style="stroke:#7AA2F7;stroke-width:3.125;"/><polygon fill="#7AA2F7" points="669.8125,394.5972,682.3125,366.4722,669.8125,378.9722,657.3125,366.4722,669.8125,394.5972" style="stroke:#7AA2F7;stroke-width:3.125;"/></g><!--link Created to Paid--><g class="link" data-entity-1="ent0003" data-entity-2="ent0005" data-link-type="dependency" data-source-line="5" id="lnk6"><path d="M572.5,522.7534 C524.6875,550.9097 471.6875,591.9722 444.8125,645.6909 C422.4062,690.5347 421.8277,728.5881 429.984,773.3694" fill="none" id="Created-to-Paid" style="stroke:#7AA2F7;stroke-width:3.125;"/><polygon fill="#7AA2F7" points="433.3437,791.8159,440.6018,761.9063,430.5439,776.4438,416.0064,766.386,433.3437,791.8159" style="stroke:#7AA2F7;stroke-width:3.125;"/><text fill="#000000" font-family="'Segoe UI', 'Inter', 'sans-serif'" font-size="37.5" lengthAdjust="spacing" textLength="302.0508" x="447.9375" y="689.2822">Payment Received</text></g><!--link Created to Cancelled--><g class="link" data-entity-1="ent0003" data-entity-2="ent0007" data-link-type="dependency" data-source-line="6" id="lnk8"><path d="M717.5,553.0347 C733.7813,581.3472 751.0313,614.2534 763.5625,645.6909 C817.4063,780.4409 850.2883,928.0251 868.4445,1022.9001" fill="none" id="Created-to-Cancelled" style="stroke:#7AA2F7;stroke-width:3.125;"/><polygon fill="#7AA2F7" points="871.9687,1041.3159,878.9596,1011.3427,869.0319,1025.9694,854.4052,1016.0417,871.9687,1041.3159" style="stroke:#7AA2F7;stroke-width:3.125;"/><text fill="#000000" font-family="'Segoe UI', 'Inter', 'sans-serif'" font-size="37.5" lengthAdjust="spacing" textLength="178.5461" x="786.5" y="689.2822">User Abort</text></g><!--link Paid to Processing--><g class="link" data-entity-1="ent0005" data-entity-2="ent0009" data-link-type="dependency" data-source-line="8" id="lnk10"><path d="M375.8438,890.3784 C298.6563,911.3159 184.9063,955.6597 132.3125,1042.5659 C86.75,1117.9097 95.6808,1203.9359 113.1183,1273.8421" fill="none" id="Paid-to-Processing" style="stroke:#7AA2F7;stroke-width:3.125;"/><polygon fill="#7AA2F7" points="117.6563,1292.0347,122.9777,1261.7205,113.8746,1276.8742,98.7209,1267.7711,117.6563,1292.0347" style="stroke:#7AA2F7;stroke-width:3.125;"/><text fill="#000000" font-family="'Segoe UI', 'Inter', 'sans-serif'" font-size="37.5" lengthAdjust="spacing" textLength="248.8586" x="135.4375" y="1137.7197">Validation Pass</text></g><!--link Paid to Refunded--><g class="link" data-entity-1="ent0005" data-entity-2="ent0011" data-link-type="dependency" data-source-line="9" id="lnk12"><path d="M459.4688,950.1284 C464.3438,1016.0659 472.3125,1113.8784 482.3125,1198.8159 C496.5,1319.2534 515.3351,1439.9077 529.0851,1523.5952" fill="none" id="Paid-to-Refunded" style="stroke:#7AA2F7;stroke-width:3.125;"/><polygon fill="#7AA2F7" points="532.125,1542.0972,539.8998,1512.3177,529.5918,1526.6789,515.2305,1516.3709,532.125,1542.0972" style="stroke:#7AA2F7;stroke-width:3.125;"/><text fill="#000000" font-family="'Segoe UI', 'Inter', 'sans-serif'" font-size="37.5" lengthAdjust="spacing" textLength="232.5073" x="485.4375" y="1137.7197">Validation Fail</text></g><!--link Processing to Shipped--><g class="link" data-entity-1="ent0009" data-entity-2="ent0013" data-link-type="dependency" data-source-line="11" id="lnk14"><path d="M120.625,1449.0659 C105.0625,1515.1909 88.9688,1613.8472 104.1875,1698.8159 C109.7812,1729.8784 113.7723,1745.2503 124.9598,1773.5941" fill="none" id="Processing-to-Shipped" style="stroke:#7AA2F7;stroke-width:3.125;"/><polygon fill="#7AA2F7" points="131.8438,1791.0347,133.1449,1760.2845,126.1071,1776.5008,109.8908,1769.4631,131.8438,1791.0347" style="stroke:#7AA2F7;stroke-width:3.125;"/><text fill="#000000" font-family="'Segoe UI', 'Inter', 'sans-serif'" font-size="37.5" lengthAdjust="spacing" textLength="270.4651" x="107.3125" y="1637.7197">Carrier Assigned</text></g><!--link Shipped to Delivered--><g class="link" data-entity-1="ent0013" data-entity-2="ent0015" data-link-type="dependency" data-source-line="12" id="lnk16"><path d="M168.625,1950.1909 C170.5625,1993.1597 174.4688,2047.6597 182.3125,2095.6909 C187.3438,2126.4409 190.4861,2141.6917 198.3298,2170.5355" fill="none" id="Shipped-to-Delivered" style="stroke:#7AA2F7;stroke-width:3.125;"/><polygon fill="#7AA2F7" points="203.25,2188.6284,207.9317,2158.2089,199.1498,2173.551,183.8078,2164.7691,203.25,2188.6284" style="stroke:#7AA2F7;stroke-width:3.125;"/><text fill="#000000" font-family="'Segoe UI', 'Inter', 'sans-serif'" font-size="37.5" lengthAdjust="spacing" textLength="276.8005" x="185.4375" y="2086.1572">Proof of Delivery</text></g><!--link Delivered to *end*--><g class="link" data-entity-1="ent0015" data-entity-2="ent0017" data-link-type="dependency" data-source-line="14" id="lnk18"><path d="M308.1563,2347.1284 C379,2413.1284 462.9648,2491.3515 507.4023,2532.7265" fill="none" id="Delivered-to-*end*" style="stroke:#7AA2F7;stroke-width:3.125;"/><polygon fill="#7AA2F7" points="521.125,2545.5034,509.0589,2517.1895,509.6894,2534.856,492.023,2535.4864,521.125,2545.5034" style="stroke:#7AA2F7;stroke-width:3.125;"/></g><!--link Cancelled to *end*--><g class="link" data-entity-1="ent0007" data-entity-2="ent0017" data-link-type="dependency" data-source-line="15" id="lnk19"><path d="M870.625,1199.5972 C853.0313,1296.2222 826.0625,1468.6284 826.0625,1617.5659 C826.0625,1617.5659 826.0625,1617.5659 826.0625,2270.6909 C826.0625,2414.8159 666.0307,2508.7328 592.8119,2544.889" fill="none" id="Cancelled-to-*end*" style="stroke:#7AA2F7;stroke-width:3.125;"/><polygon fill="#7AA2F7" points="576,2553.1909,606.7525,2551.946,590.0099,2546.2727,595.6833,2529.5301,576,2553.1909" style="stroke:#7AA2F7;stroke-width:3.125;"/></g><!--link Refunded to *end*--><g class="link" data-entity-1="ent0011" data-entity-2="ent0017" data-link-type="dependency" data-source-line="16" id="lnk20"><path d="M544.8125,1700.2534 C544.8125,1894.6284 544.8125,2383.1909 544.8125,2516.4097" fill="none" id="Refunded-to-*end*" style="stroke:#7AA2F7;stroke-width:3.125;"/><polygon fill="#7AA2F7" points="544.8125,2535.1597,557.3125,2507.0347,544.8125,2519.5347,532.3125,2507.0347,544.8125,2535.1597" style="stroke:#7AA2F7;stroke-width:3.125;"/></g><?plantuml-src NP3DQiCm48JlUWhrMh1pxw5GN78gjAIqbz238esJXPLiz5FmssSbdBWK10iptyxkwe62vUAW-tvdKa9Ekpd2K_5Tli2ZdujdbIapz7jqY7fVU2HcZv3r6usmYsKeTNpyqLtth8S8a-7KMflsOSZf9obBwph0Wdx_COC95ioeu5UIEI-dAMQbMcyBYPD5IXJEGdmR9cSoJK5IKzge0yOIN4lvm-mDiKHj2HNzlD0yDt8mCL8TAUOvo68tgsAlO5asDb0Ifb7BMyL5gSskiFo2sYwvAVUbLk4A?></g></svg>