<?plantuml 1.2026.2?><svg xmlns="http://www.w3.org/2000/svg" xmlns:xlink="http://www.w3.org/1999/xlink" contentStyleType="text/css" data-diagram-type="SEQUENCE" height="1571.875px" preserveAspectRatio="none" style="width:2121px;height:1571px;" version="1.1" viewBox="0 0 2121 1571" width="2121.875px" zoomAndPan="magnify"><title>Checkout &amp; Payment Flow</title><defs/><g><text fill="#000000" font-family="'Segoe UI', 'Inter', 'sans-serif'" font-size="43.75" font-weight="bold" lengthAdjust="spacing" textLength="544.397" x="784.0683" y="94.0857">Checkout &amp; Payment Flow</text><g><title>S </title><rect fill="#FFFFFF" height="789.6484" style="stroke:#181818;stroke-width:3.125;" width="31.25" x="526.535" y="476.6968"/></g><g><title>Order Service</title><rect fill="#FFFFFF" height="602.3926" style="stroke:#181818;stroke-width:3.125;" width="31.25" x="1041.4337" y="570.3247"/></g><g><title>Payment Engine</title><rect fill="#FFFFFF" height="227.8809" style="stroke:#181818;stroke-width:3.125;" width="31.25" x="1560.0189" y="757.5806"/></g><g class="participant-lifeline" data-entity-uid="part1" data-qualified-name="Customer" id="part1-lifeline"><g><title>Customer</title><rect fill="#000000" fill-opacity="0.00000" height="945.7764" width="25" x="92.4896" y="376.8188"/><line style="stroke:#BB9AF7;stroke-width:1.5625;stroke-dasharray:15.625,15.625;" x1="103.125" x2="103.125" y1="376.8188" y2="1322.5952"/></g></g><g class="participant-lifeline" data-entity-uid="part2" data-qualified-name="UI" id="part2-lifeline"><g><title>S </title><rect fill="#000000" fill-opacity="0.00000" height="945.7764" width="25" x="529.66" y="376.8188"/><line style="stroke:#BB9AF7;stroke-width:1.5625;stroke-dasharray:15.625,15.625;" x1="540.1855" x2="540.1855" y1="376.8188" y2="1322.5952"/></g></g><g class="participant-lifeline" data-entity-uid="part3" data-qualified-name="Order" id="part3-lifeline"><g><title>Order Service</title><rect fill="#000000" fill-opacity="0.00000" height="945.7764" width="25" x="1044.5587" y="376.8188"/><line style="stroke:#BB9AF7;stroke-width:1.5625;stroke-dasharray:15.625,15.625;" x1="1055.0049" x2="1055.0049" y1="376.8188" y2="1322.5952"/></g></g><g class="participant-lifeline" data-entity-uid="part4" data-qualified-name="Pay" id="part4-lifeline"><g><title>Payment Engine</title><rect fill="#000000" fill-opacity="0.00000" height="945.7764" width="25" x="1563.1439" y="376.8188"/><line style="stroke:#BB9AF7;stroke-width:1.5625;stroke-dasharray:15.625,15.625;" x1="1573.6298" x2="1573.6298" y1="376.8188" y2="1322.5952"/></g></g><g class="participant-lifeline" data-entity-uid="part5" data-qualified-name="DB" id="part5-lifeline"><g><title>Order DB</title><rect fill="#000000" fill-opacity="0.00000" height="945.7764" width="25" x="2001.1078" y="376.8188"/><line style="stroke:#BB9AF7;stroke-width:1.5625;stroke-dasharray:15.625,15.625;" x1="2011.557" x2="2011.557" y1="376.8188" y2="1322.5952"/></g></g><g class="participant participant-head" data-entity-uid="part1" data-qualified-name="Customer" id="part1-head"><text fill="#C0CAF5" font-family="'Segoe UI', 'Inter', 'sans-serif'" font-size="37.5" lengthAdjust="spacing" textLength="159.9792" x="15.625" y="367.4072">Customer</text><ellipse cx="104.9896" cy="166.0034" fill="#F7768E" rx="25" ry="25" style="stroke:#F7768E;stroke-width:1.5625;"/><path d="M104.9896,191.0034 L104.9896,275.3784 M64.3646,216.0034 L145.6146,216.0034 M104.9896,275.3784 L64.3646,322.2534 M104.9896,275.3784 L145.6146,322.2534" fill="none" style="stroke:#F7768E;stroke-width:1.5625;"/></g><g class="participant participant-tail" data-entity-uid="part1" data-qualified-name="Customer" id="part1-tail"><text fill="#C0CAF5" font-family="'Segoe UI', 'Inter', 'sans-serif'" font-size="37.5" lengthAdjust="spacing" textLength="159.9792" x="15.625" y="1359.9365">Customer</text><ellipse cx="104.9896" cy="1395.9106" fill="#F7768E" rx="25" ry="25" style="stroke:#F7768E;stroke-width:1.5625;"/><path d="M104.9896,1420.9106 L104.9896,1505.2856 M64.3646,1445.9106 L145.6146,1445.9106 M104.9896,1505.2856 L64.3646,1552.1606 M104.9896,1505.2856 L145.6146,1552.1606" fill="none" style="stroke:#F7768E;stroke-width:1.5625;"/></g><g class="participant participant-head" data-entity-uid="part2" data-qualified-name="UI" id="part2-head"><rect fill="#1A1B26" height="106.25" rx="15.625" ry="15.625" style="stroke:#414868;stroke-width:1.5625;" width="247.699" x="418.3105" y="267.4438"/><ellipse cx="471.4355" cy="320.5688" fill="#7AA2F7" rx="31.25" ry="31.25" style="stroke:#414868;stroke-width:3.125;"/><path d="M467.8223,332.0923 Q467.334,332.6782 467.041,332.8735 Q466.748,333.02 466.3086,333.02 Q465.4297,333.02 464.8926,332.4829 Q464.4043,331.897 464.4043,330.5298 L464.4043,327.9907 Q464.4043,326.6724 464.8926,326.0864 Q465.4297,325.5005 466.3086,325.5005 Q466.9434,325.5005 467.3828,325.8423 Q467.8711,326.1841 468.0664,327.0142 Q468.3105,327.8442 468.6035,328.1372 Q469.0918,328.6743 470.459,329.2603 Q471.8262,329.8462 473.4375,329.8462 Q475.9277,329.8462 477.5391,328.6743 Q478.5645,327.9907 478.5645,326.9165 Q478.5645,326.2329 478.0762,325.647 Q477.5879,325.0122 476.4648,324.6216 Q475.7324,324.3286 473.1934,323.8403 Q470.1172,323.3032 468.5547,322.522 Q466.9922,321.6919 466.0645,320.2271 Q465.1367,318.7622 465.1367,317.0532 Q465.1367,314.3677 467.3828,312.3657 Q469.6289,310.3149 473.2422,310.3149 Q474.707,310.3149 475.9277,310.6567 Q477.1484,310.9497 478.1738,311.5845 Q478.9063,310.9009 479.6387,310.9009 Q480.4688,310.9009 480.957,311.4868 Q481.4941,312.0239 481.4941,313.3911 L481.4941,316.2231 Q481.4941,317.5415 480.957,318.1274 Q480.4688,318.7134 479.6387,318.7134 Q478.9551,318.7134 478.418,318.2739 Q478.0273,317.981 477.832,317.0532 Q477.6367,316.1255 477.2949,315.686 Q476.8066,315.0024 475.7324,314.563 Q474.6582,314.0747 473.291,314.0747 Q471.2402,314.0747 470.0684,315.0024 Q468.8965,315.9302 468.8965,316.9556 Q468.8965,317.688 469.3359,318.3228 Q469.8242,318.9575 470.8008,319.3481 Q471.3867,319.5923 474.2676,320.1782 Q477.1484,320.7153 478.7109,321.3989 Q480.2734,322.0825 481.2988,323.5474 Q482.3242,324.9634 482.3242,326.9653 Q482.3242,329.7485 480.3711,331.4087 Q477.7344,333.606 473.7305,333.606 Q472.168,333.606 470.7031,333.2153 Q469.2383,332.8735 467.8223,332.0923 Z " fill="#C0CAF5"/><text fill="#C0CAF5" font-family="'Segoe UI', 'Inter', 'sans-serif'" font-size="37.5" lengthAdjust="spacing" textLength="122.699" x="521.4355" y="329.7852">Web UI</text></g><g class="participant participant-tail" data-entity-uid="part2" data-qualified-name="UI" id="part2-tail"><rect fill="#1A1B26" height="106.25" rx="15.625" ry="15.625" style="stroke:#414868;stroke-width:1.5625;" width="247.699" x="418.3105" y="1319.4702"/><ellipse cx="471.4355" cy="1372.5952" fill="#7AA2F7" rx="31.25" ry="31.25" style="stroke:#414868;stroke-width:3.125;"/><path d="M467.8223,1384.1187 Q467.334,1384.7046 467.041,1384.8999 Q466.748,1385.0464 466.3086,1385.0464 Q465.4297,1385.0464 464.8926,1384.5093 Q464.4043,1383.9233 464.4043,1382.5562 L464.4043,1380.0171 Q464.4043,1378.6987 464.8926,1378.1128 Q465.4297,1377.5269 466.3086,1377.5269 Q466.9434,1377.5269 467.3828,1377.8687 Q467.8711,1378.2104 468.0664,1379.0405 Q468.3105,1379.8706 468.6035,1380.1636 Q469.0918,1380.7007 470.459,1381.2866 Q471.8262,1381.8726 473.4375,1381.8726 Q475.9277,1381.8726 477.5391,1380.7007 Q478.5645,1380.0171 478.5645,1378.9429 Q478.5645,1378.2593 478.0762,1377.6733 Q477.5879,1377.0386 476.4648,1376.6479 Q475.7324,1376.355 473.1934,1375.8667 Q470.1172,1375.3296 468.5547,1374.5483 Q466.9922,1373.7183 466.0645,1372.2534 Q465.1367,1370.7886 465.1367,1369.0796 Q465.1367,1366.394 467.3828,1364.3921 Q469.6289,1362.3413 473.2422,1362.3413 Q474.707,1362.3413 475.9277,1362.6831 Q477.1484,1362.9761 478.1738,1363.6108 Q478.9063,1362.9272 479.6387,1362.9272 Q480.4688,1362.9272 480.957,1363.5132 Q481.4941,1364.0503 481.4941,1365.4175 L481.4941,1368.2495 Q481.4941,1369.5679 480.957,1370.1538 Q480.4688,1370.7397 479.6387,1370.7397 Q478.9551,1370.7397 478.418,1370.3003 Q478.0273,1370.0073 477.832,1369.0796 Q477.6367,1368.1519 477.2949,1367.7124 Q476.8066,1367.0288 475.7324,1366.5894 Q474.6582,1366.1011 473.291,1366.1011 Q471.2402,1366.1011 470.0684,1367.0288 Q468.8965,1367.9565 468.8965,1368.9819 Q468.8965,1369.7144 469.3359,1370.3491 Q469.8242,1370.9839 470.8008,1371.3745 Q471.3867,1371.6187 474.2676,1372.2046 Q477.1484,1372.7417 478.7109,1373.4253 Q480.2734,1374.1089 481.2988,1375.5737 Q482.3242,1376.9897 482.3242,1378.9917 Q482.3242,1381.7749 480.3711,1383.4351 Q477.7344,1385.6323 473.7305,1385.6323 Q472.168,1385.6323 470.7031,1385.2417 Q469.2383,1384.8999 467.8223,1384.1187 Z " fill="#C0CAF5"/><text fill="#C0CAF5" font-family="'Segoe UI', 'Inter', 'sans-serif'" font-size="37.5" lengthAdjust="spacing" textLength="122.699" x="521.4355" y="1381.8115">Web UI</text></g><g class="participant participant-head" data-entity-uid="part3" data-qualified-name="Order" id="part3-head"><rect fill="#1A1B26" height="93.6279" rx="15.625" ry="15.625" style="stroke:#414868;stroke-width:1.5625;" width="266.6077" x="923.7549" y="280.0659"/><text fill="#C0CAF5" font-family="'Segoe UI', 'Inter', 'sans-serif'" font-size="37.5" lengthAdjust="spacing" textLength="222.8577" x="945.6299" y="342.4072">Order Service</text></g><g class="participant participant-tail" data-entity-uid="part3" data-qualified-name="Order" id="part3-tail"><rect fill="#1A1B26" height="93.6279" rx="15.625" ry="15.625" style="stroke:#414868;stroke-width:1.5625;" width="266.6077" x="923.7549" y="1319.4702"/><text fill="#C0CAF5" font-family="'Segoe UI', 'Inter', 'sans-serif'" font-size="37.5" lengthAdjust="spacing" textLength="222.8577" x="945.6299" y="1381.8115">Order Service</text></g><g class="participant participant-head" data-entity-uid="part4" data-qualified-name="Pay" id="part4-head"><rect fill="#1A1B26" height="93.6279" rx="15.625" ry="15.625" style="stroke:#414868;stroke-width:1.5625;" width="310.2783" x="1420.5048" y="280.0659"/><text fill="#C0CAF5" font-family="'Segoe UI', 'Inter', 'sans-serif'" font-size="37.5" lengthAdjust="spacing" textLength="266.5283" x="1442.3798" y="342.4072">Payment Engine</text></g><g class="participant participant-tail" data-entity-uid="part4" data-qualified-name="Pay" id="part4-tail"><rect fill="#1A1B26" height="93.6279" rx="15.625" ry="15.625" style="stroke:#414868;stroke-width:1.5625;" width="310.2783" x="1420.5048" y="1319.4702"/><text fill="#C0CAF5" font-family="'Segoe UI', 'Inter', 'sans-serif'" font-size="37.5" lengthAdjust="spacing" textLength="266.5283" x="1442.3798" y="1381.8115">Payment Engine</text></g><g class="participant participant-head" data-entity-uid="part5" data-qualified-name="DB" id="part5-head"><text fill="#000000" font-family="'Segoe UI', 'Inter', 'sans-serif'" font-size="37.5" lengthAdjust="spacing" textLength="154.1016" x="1927.182" y="367.4072">Order DB</text><path d="M1957.3578,214.4409 C1957.3578,183.1909 2013.6078,183.1909 2013.6078,183.1909 C2013.6078,183.1909 2069.8578,183.1909 2069.8578,214.4409 L2069.8578,295.6909 C2069.8578,326.9409 2013.6078,326.9409 2013.6078,326.9409 C2013.6078,326.9409 1957.3578,326.9409 1957.3578,295.6909 L1957.3578,214.4409" fill="#E2E2F0" style="stroke:#181818;stroke-width:1.5625;"/><path d="M1957.3578,214.4409 C1957.3578,245.6909 2013.6078,245.6909 2013.6078,245.6909 C2013.6078,245.6909 2069.8578,245.6909 2069.8578,214.4409" fill="none" style="stroke:#181818;stroke-width:1.5625;"/></g><g class="participant participant-tail" data-entity-uid="part5" data-qualified-name="DB" id="part5-tail"><text fill="#000000" font-family="'Segoe UI', 'Inter', 'sans-serif'" font-size="37.5" lengthAdjust="spacing" textLength="154.1016" x="1927.182" y="1359.9365">Order DB</text><path d="M1957.3578,1400.5981 C1957.3578,1369.3481 2013.6078,1369.3481 2013.6078,1369.3481 C2013.6078,1369.3481 2069.8578,1369.3481 2069.8578,1400.5981 L2069.8578,1481.8481 C2069.8578,1513.0981 2013.6078,1513.0981 2013.6078,1513.0981 C2013.6078,1513.0981 1957.3578,1513.0981 1957.3578,1481.8481 L1957.3578,1400.5981" fill="#E2E2F0" style="stroke:#181818;stroke-width:1.5625;"/><path d="M1957.3578,1400.5981 C1957.3578,1431.8481 2013.6078,1431.8481 2013.6078,1431.8481 C2013.6078,1431.8481 2069.8578,1431.8481 2069.8578,1400.5981" fill="none" style="stroke:#181818;stroke-width:1.5625;"/></g><g><title>S </title><rect fill="#FFFFFF" height="789.6484" style="stroke:#181818;stroke-width:3.125;" width="31.25" x="526.535" y="476.6968"/></g><g><title>Order Service</title><rect fill="#FFFFFF" height="602.3926" style="stroke:#181818;stroke-width:3.125;" width="31.25" x="1041.4337" y="570.3247"/></g><g><title>Payment Engine</title><rect fill="#FFFFFF" height="227.8809" style="stroke:#181818;stroke-width:3.125;" width="31.25" x="1560.0189" y="757.5806"/></g><g class="message" data-entity-1="part1" data-entity-2="part2" id="msg1"><polygon fill="#7AA2F7" points="489.035,464.1968,520.285,476.6968,489.035,489.1968,501.535,476.6968" style="stroke:#7AA2F7;stroke-width:3.125;"/><line style="stroke:#7AA2F7;stroke-width:3.125;" x1="104.9896" x2="507.785" y1="476.6968" y2="476.6968"/><text fill="#000000" font-family="'Segoe UI', 'Inter', 'sans-serif'" font-size="37.5" lengthAdjust="spacing" textLength="343.7439" x="126.8646" y="461.0352">Click 'Confirm Order'</text></g><g class="message" data-entity-1="part2" data-entity-2="part3" id="msg2"><polygon fill="#7AA2F7" points="1003.9337,557.8247,1035.1837,570.3247,1003.9337,582.8247,1016.4337,570.3247" style="stroke:#7AA2F7;stroke-width:3.125;"/><line style="stroke:#7AA2F7;stroke-width:3.125;" x1="557.785" x2="1022.6837" y1="570.3247" y2="570.3247"/><text fill="#000000" font-family="'Segoe UI', 'Inter', 'sans-serif'" font-size="37.5" lengthAdjust="spacing" textLength="424.2737" x="579.66" y="554.6631">Create Order (items, user)</text></g><g class="message" data-entity-1="part3" data-entity-2="part5" id="msg3"><polygon fill="#7AA2F7" points="1976.1078,651.4526,2007.3578,663.9526,1976.1078,676.4526,1988.6078,663.9526" style="stroke:#7AA2F7;stroke-width:3.125;"/><line style="stroke:#7AA2F7;stroke-width:3.125;" x1="1072.6837" x2="1994.8578" y1="663.9526" y2="663.9526"/><text fill="#000000" font-family="'Segoe UI', 'Inter', 'sans-serif'" font-size="37.5" lengthAdjust="spacing" textLength="379.1565" x="1094.5587" y="648.291">Store 'PENDING' Order</text></g><g class="message" data-entity-1="part3" data-entity-2="part4" id="msg4"><polygon fill="#7AA2F7" points="1522.5189,745.0806,1553.7689,757.5806,1522.5189,770.0806,1535.0189,757.5806" style="stroke:#7AA2F7;stroke-width:3.125;"/><line style="stroke:#7AA2F7;stroke-width:3.125;" x1="1072.6837" x2="1541.2689" y1="757.5806" y2="757.5806"/><text fill="#000000" font-family="'Segoe UI', 'Inter', 'sans-serif'" font-size="37.5" lengthAdjust="spacing" textLength="267.8101" x="1094.5587" y="741.9189">Initiate Payment</text></g><g class="message" data-entity-1="part4" data-entity-2="part4" id="msg5"><line style="stroke:#7AA2F7;stroke-width:3.125;" x1="1591.2689" x2="1722.5189" y1="851.2085" y2="851.2085"/><line style="stroke:#7AA2F7;stroke-width:3.125;" x1="1722.5189" x2="1722.5189" y1="851.2085" y2="891.8335"/><line style="stroke:#7AA2F7;stroke-width:3.125;" x1="1594.3939" x2="1722.5189" y1="891.8335" y2="891.8335"/><polygon fill="#7AA2F7" points="1625.6439,879.3335,1594.3939,891.8335,1625.6439,904.3335,1613.1439,891.8335" style="stroke:#7AA2F7;stroke-width:3.125;"/><text fill="#000000" font-family="'Segoe UI', 'Inter', 'sans-serif'" font-size="37.5" lengthAdjust="spacing" textLength="331.7139" x="1613.1439" y="835.5469">Validate Credit Card</text></g><g class="message" data-entity-1="part4" data-entity-2="part3" id="msg6"><line style="stroke:#7AA2F7;stroke-width:3.125;" x1="1075.8087" x2="1107.0587" y1="985.4614" y2="972.9614"/><line style="stroke:#7AA2F7;stroke-width:3.125;" x1="1075.8087" x2="1107.0587" y1="985.4614" y2="997.9614"/><line style="stroke:#7AA2F7;stroke-width:3.125;stroke-dasharray:6.25,6.25;" x1="1072.6837" x2="1572.5189" y1="985.4614" y2="985.4614"/><text fill="#000000" font-family="'Segoe UI', 'Inter', 'sans-serif'" font-size="37.5" lengthAdjust="spacing" textLength="412.3352" x="1125.8087" y="969.7998">Payment Success (txn_id)</text></g><g class="message" data-entity-1="part3" data-entity-2="part5" id="msg7"><polygon fill="#7AA2F7" points="1976.1078,1066.5894,2007.3578,1079.0894,1976.1078,1091.5894,1988.6078,1079.0894" style="stroke:#7AA2F7;stroke-width:3.125;"/><line style="stroke:#7AA2F7;stroke-width:3.125;" x1="1072.6837" x2="1994.8578" y1="1079.0894" y2="1079.0894"/><text fill="#000000" font-family="'Segoe UI', 'Inter', 'sans-serif'" font-size="37.5" lengthAdjust="spacing" textLength="336.5845" x="1094.5587" y="1063.4277">Update Order 'PAID'</text></g><g class="message" data-entity-1="part3" data-entity-2="part2" id="msg8"><line style="stroke:#7AA2F7;stroke-width:3.125;" x1="560.91" x2="592.16" y1="1172.7173" y2="1160.2173"/><line style="stroke:#7AA2F7;stroke-width:3.125;" x1="560.91" x2="592.16" y1="1172.7173" y2="1185.2173"/><line style="stroke:#7AA2F7;stroke-width:3.125;stroke-dasharray:6.25,6.25;" x1="557.785" x2="1053.9337" y1="1172.7173" y2="1172.7173"/><text fill="#000000" font-family="'Segoe UI', 'Inter', 'sans-serif'" font-size="37.5" lengthAdjust="spacing" textLength="275.5737" x="610.91" y="1157.0557">Order Successful</text></g><g class="message" data-entity-1="part2" data-entity-2="part1" id="msg9"><polygon fill="#7AA2F7" points="139.3646,1253.8452,108.1146,1266.3452,139.3646,1278.8452,126.8646,1266.3452" style="stroke:#7AA2F7;stroke-width:3.125;"/><line style="stroke:#7AA2F7;stroke-width:3.125;" x1="120.6146" x2="539.035" y1="1266.3452" y2="1266.3452"/><text fill="#000000" font-family="'Segoe UI', 'Inter', 'sans-serif'" font-size="37.5" lengthAdjust="spacing" textLength="346.5454" x="158.1146" y="1250.6836">Display Confirmation</text></g><?plantuml-src NP7TQy8m5CNVyrVSELWL_82z22A5sRhH5oSKjySHc-kysAOb7sxxxvSOkzezbTpyxiavftSaYz8AXEbqnhL6esUDmefiDJ57h73QsAfaXao9a1onEDNMm0Di-K-5qi1pMNynnWjJAqYiDdM5YZLS6IgeuGuOlECUTja0k7OVM2vXc8_lvvm_7kOZYEC-_Ae4AiXHdQd0oyvbqeVQjzVoasIWt8W9RlYUQsnLqjNbAbqnrZg3IUnDB20fgJX1bDJoGAeAZqG-1fsvGSSmXpauA3bUeP-7uv0CLdeCLgCQTKl1QK3SQhfoUxdh1I7QhZTfjdc9_ZFEjeCoIOQymZLO9-bZUUOFVUCb2N_Z30aoa70b0Z69ExTjGRaj2jGQXkPRVf0OCO4zwRxNNIEwZD7sAKkZbl3Ybzwk_oVe7cnvgnYoXTx-2bz0IhefdSDhrznGBM_NTjal?></g></svg>