<?plantuml 1.2026.2?><svg xmlns="http://www.w3.org/2000/svg" xmlns:xlink="http://www.w3.org/1999/xlink" contentStyleType="text/css" data-diagram-type="TIMING" height="693.75px" preserveAspectRatio="none" style="width:1187px;height:693px;" version="1.1" viewBox="0 0 1187 693" width="1187.5px" zoomAndPan="magnify"><title>Real-time Signal Timing</title><defs/><g><g class="title" data-source-line="2"><text fill="#000000" font-family="'Segoe UI', 'Inter', 'sans-serif'" font-size="43.75" font-weight="bold" lengthAdjust="spacing" textLength="493.8538" x="334.9304" y="109.7107">Real-time Signal Timing</text></g><line style="stroke:#333333;stroke-width:1.5625;" x1="31.25" x2="31.25" y1="155.0659" y2="595.4468"/><line style="stroke:#333333;stroke-width:1.5625;" x1="1135.5896" x2="1135.5896" y1="155.0659" y2="595.4468"/><line style="stroke:#333333;stroke-width:1.5625;stroke-dasharray:9.375,15.625;" x1="182.4646" x2="182.4646" y1="155.0659" y2="595.4468"/><line style="stroke:#333333;stroke-width:1.5625;stroke-dasharray:9.375,15.625;" x1="338.7146" x2="338.7146" y1="155.0659" y2="595.4468"/><line style="stroke:#333333;stroke-width:1.5625;stroke-dasharray:9.375,15.625;" x1="494.9646" x2="494.9646" y1="155.0659" y2="595.4468"/><line style="stroke:#333333;stroke-width:1.5625;stroke-dasharray:9.375,15.625;" x1="651.2146" x2="651.2146" y1="155.0659" y2="595.4468"/><line style="stroke:#333333;stroke-width:1.5625;stroke-dasharray:9.375,15.625;" x1="807.4646" x2="807.4646" y1="155.0659" y2="595.4468"/><line style="stroke:#333333;stroke-width:1.5625;stroke-dasharray:9.375,15.625;" x1="963.7146" x2="963.7146" y1="155.0659" y2="595.4468"/><line style="stroke:#333333;stroke-width:1.5625;stroke-dasharray:9.375,15.625;" x1="1119.9646" x2="1119.9646" y1="155.0659" y2="595.4468"/><line style="stroke:#333333;stroke-width:1.5625;" x1="31.25" x2="1135.5896" y1="155.0659" y2="155.0659"/><text fill="#333333" font-family="'Segoe UI', 'Inter', 'sans-serif'" font-size="37.5" font-weight="bold" lengthAdjust="spacing" textLength="211.2854" x="46.875" y="195.5322">Sensor Data</text><line style="stroke:#333333;stroke-width:1.5625;" x1="31.25" x2="261.2854" y1="208.0688" y2="208.0688"/><line style="stroke:#333333;stroke-width:1.5625;" x1="261.2854" x2="292.5354" y1="208.0688" y2="155.0659"/><text fill="#333333" font-family="'Segoe UI', 'Inter', 'sans-serif'" font-size="37.5" lengthAdjust="spacing" textLength="60.7544" x="46.875" y="382.9712">Idle</text><text fill="#333333" font-family="'Segoe UI', 'Inter', 'sans-serif'" font-size="37.5" lengthAdjust="spacing" textLength="135.5896" x="46.875" y="320.4712">Reading</text><text fill="#333333" font-family="'Segoe UI', 'Inter', 'sans-serif'" font-size="37.5" lengthAdjust="spacing" textLength="78.6255" x="46.875" y="257.9712">Alert</text><line style="stroke:#006400;stroke-width:6.25;" x1="182.4646" x2="338.7146" y1="364.3188" y2="364.3188"/><line style="stroke:#006400;stroke-width:6.25;" x1="338.7146" x2="494.9646" y1="301.8188" y2="301.8188"/><line style="stroke:#006400;stroke-width:6.25;" x1="494.9646" x2="963.7146" y1="239.3188" y2="239.3188"/><line style="stroke:#006400;stroke-width:6.25;" x1="963.7146" x2="1119.9646" y1="364.3188" y2="364.3188"/><line style="stroke:#006400;stroke-width:6.25;" x1="338.7146" x2="338.7146" y1="301.8188" y2="364.3188"/><line style="stroke:#006400;stroke-width:6.25;" x1="494.9646" x2="494.9646" y1="239.3188" y2="301.8188"/><line style="stroke:#006400;stroke-width:6.25;" x1="963.7146" x2="963.7146" y1="239.3188" y2="364.3188"/><line style="stroke:#333333;stroke-width:1.5625;" x1="31.25" x2="1135.5896" y1="420.5688" y2="420.5688"/><text fill="#333333" font-family="'Segoe UI', 'Inter', 'sans-serif'" font-size="37.5" font-weight="bold" lengthAdjust="spacing" textLength="207.4951" x="46.875" y="461.0352">Alarm State</text><line style="stroke:#333333;stroke-width:1.5625;" x1="31.25" x2="257.4951" y1="473.5718" y2="473.5718"/><line style="stroke:#333333;stroke-width:1.5625;" x1="257.4951" x2="288.7451" y1="473.5718" y2="420.5688"/><polygon fill="#E2E2F0" points="219.9646,489.1968,301.2146,489.1968,338.7146,526.6968,301.2146,564.1968,219.9646,564.1968,182.4646,526.6968" style="stroke:#006400;stroke-width:4.6875;"/><polygon fill="#E2E2F0" points="376.2146,489.1968,457.4646,489.1968,494.9646,526.6968,457.4646,564.1968,376.2146,564.1968,338.7146,526.6968" style="stroke:#006400;stroke-width:4.6875;"/><polygon fill="#E2E2F0" points="532.4646,489.1968,926.2146,489.1968,963.7146,526.6968,926.2146,564.1968,532.4646,564.1968,494.9646,526.6968" style="stroke:#006400;stroke-width:4.6875;"/><polygon fill="#E2E2F0" points="1001.2146,489.1968,1119.9646,489.1968,1119.9646,564.1968,1001.2146,564.1968,963.7146,526.6968" style="stroke:#E2E2F0;stroke-width:4.6875;"/><path d="M1119.9646,489.1968 L1001.2146,489.1968 L963.7146,526.6968 L1001.2146,564.1968 L1119.9646,564.1968" fill="#E2E2F0" style="stroke:#006400;stroke-width:4.6875;"/><text fill="#333333" font-family="'Segoe UI', 'Inter', 'sans-serif'" font-size="37.5" font-weight="bold" lengthAdjust="spacing" textLength="124.5667" x="198.3063" y="542.2241">Locked</text><text fill="#333333" font-family="'Segoe UI', 'Inter', 'sans-serif'" font-size="37.5" font-weight="bold" lengthAdjust="spacing" textLength="124.5667" x="354.5563" y="542.2241">Locked</text><text fill="#333333" font-family="'Segoe UI', 'Inter', 'sans-serif'" font-size="37.5" font-weight="bold" lengthAdjust="spacing" textLength="172.7051" x="642.9871" y="542.2241">Triggered</text><text fill="#333333" font-family="'Segoe UI', 'Inter', 'sans-serif'" font-size="37.5" font-weight="bold" lengthAdjust="spacing" textLength="96.1487" x="1001.2146" y="542.2241">Reset</text><line style="stroke:#333333;stroke-width:6.25;" x1="182.4646" x2="182.4646" y1="595.4468" y2="611.0718"/><line style="stroke:#333333;stroke-width:6.25;" x1="338.7146" x2="338.7146" y1="595.4468" y2="611.0718"/><line style="stroke:#333333;stroke-width:6.25;" x1="494.9646" x2="494.9646" y1="595.4468" y2="611.0718"/><line style="stroke:#333333;stroke-width:6.25;" x1="651.2146" x2="651.2146" y1="595.4468" y2="611.0718"/><line style="stroke:#333333;stroke-width:6.25;" x1="807.4646" x2="807.4646" y1="595.4468" y2="611.0718"/><line style="stroke:#333333;stroke-width:6.25;" x1="963.7146" x2="963.7146" y1="595.4468" y2="611.0718"/><line style="stroke:#333333;stroke-width:6.25;" x1="1119.9646" x2="1119.9646" y1="595.4468" y2="611.0718"/><line style="stroke:#333333;stroke-width:6.25;" x1="182.4646" x2="1119.9646" y1="595.4468" y2="595.4468"/><text fill="#333333" font-family="'Segoe UI', 'Inter', 'sans-serif'" font-size="37.5" lengthAdjust="spacing" textLength="20.2148" x="172.3572" y="654.6631">0</text><text fill="#333333" font-family="'Segoe UI', 'Inter', 'sans-serif'" font-size="37.5" lengthAdjust="spacing" textLength="60.6445" x="308.3923" y="654.6631">100</text><text fill="#333333" font-family="'Segoe UI', 'Inter', 'sans-serif'" font-size="37.5" lengthAdjust="spacing" textLength="60.6445" x="464.6423" y="654.6631">200</text><text fill="#333333" font-family="'Segoe UI', 'Inter', 'sans-serif'" font-size="37.5" lengthAdjust="spacing" textLength="60.6445" x="933.3923" y="654.6631">500</text><?plantuml-src PS_12i8m40JGUxvYxRsr2juDU14yDVs1c2vnSPEKPFF_jbKFuctWmGope-YuJWXTjxUbe9Jzd35G3QqyC60try1AI1XXGCkjK40mvADb62bGz4hbTAz5e34OIyfmiM8Ri0MCSYawAWYDPfi36B626scbphqoG0Mk4wFIQxebzyHfaKF_iMLoMYT--VXbpPZbZMCcxp5lVkh_gWTSlhq0?></g></svg>