<?plantuml 1.2026.2?><svg xmlns="http://www.w3.org/2000/svg" xmlns:xlink="http://www.w3.org/1999/xlink" contentStyleType="text/css" data-diagram-type="DESCRIPTION" height="3065.625px" preserveAspectRatio="none" style="width:984px;height:3065px;" version="1.1" viewBox="0 0 984 3065" width="984.375px" zoomAndPan="magnify"><defs/><g><g class="header" data-source-line="2"><text fill="#888888" font-family="'Segoe UI', 'Inter', 'sans-serif'" font-size="31.25" lengthAdjust="spacing" textLength="497.6044" x="445.6144" y="33.7219">Premium E-commerce Management</text></g><!--cluster E-Commerce Platform--><g class="cluster" data-qualified-name="E-Commerce Platform" data-source-line="12" id="ent0006"><rect fill="none" height="2918.75" rx="15.625" ry="15.625" style="stroke:#181818;stroke-width:3.125;" width="574.2188" x="394" y="66.5649"/><text fill="#000000" font-family="'Segoe UI', 'Inter', 'sans-serif'" font-size="37.5" font-weight="bold" lengthAdjust="spacing" textLength="389.0259" x="486.5964" y="113.2813">E-Commerce Platform</text></g><!--entity UC1--><g class="entity" data-qualified-name="E-Commerce Platform.UC1" data-source-line="13" id="ent0007"><ellipse cx="681.0862" cy="416.5697" fill="#F1F1F1" rx="191.5862" ry="45.8172" style="stroke:#181818;stroke-width:1.5625;"/><text fill="#000000" font-family="'Segoe UI', 'Inter', 'sans-serif'" font-size="37.5" lengthAdjust="spacing" textLength="265.7227" x="548.2249" y="430.5712">Search Products</text></g><!--entity UC2--><g class="entity" data-qualified-name="E-Commerce Platform.UC2" data-source-line="14" id="ent0008"><ellipse cx="681.0895" cy="216.5527" fill="#F1F1F1" rx="144.8707" ry="44.644" style="stroke:#181818;stroke-width:1.5625;"/><text fill="#000000" font-family="'Segoe UI', 'Inter', 'sans-serif'" font-size="37.5" lengthAdjust="spacing" textLength="191.6199" x="585.2795" y="230.5542">Add to Cart</text></g><!--entity UC3--><g class="entity" data-qualified-name="E-Commerce Platform.UC3" data-source-line="15" id="ent0009"><ellipse cx="681.0918" cy="822.8027" fill="#F1F1F1" rx="119.6231" ry="44.644" style="stroke:#181818;stroke-width:1.5625;"/><text fill="#000000" font-family="'Segoe UI', 'Inter', 'sans-serif'" font-size="37.5" lengthAdjust="spacing" textLength="155.9143" x="603.1347" y="836.8042">Checkout</text></g><!--entity UC4--><g class="entity" data-qualified-name="E-Commerce Platform.UC4" data-source-line="16" id="ent0010"><ellipse cx="681.0976" cy="619.6907" fill="#F1F1F1" rx="209.5351" ry="49.407" style="stroke:#181818;stroke-width:1.5625;"/><text fill="#000000" font-family="'Segoe UI', 'Inter', 'sans-serif'" font-size="37.5" lengthAdjust="spacing" textLength="313.147" x="524.5241" y="633.6922">View Order History</text></g><!--entity UC5--><g class="entity" data-qualified-name="E-Commerce Platform.UC5" data-source-line="17" id="ent0011"><ellipse cx="681.094" cy="1022.8027" fill="#F1F1F1" rx="162.0003" ry="44.644" style="stroke:#181818;stroke-width:1.5625;"/><text fill="#000000" font-family="'Segoe UI', 'Inter', 'sans-serif'" font-size="37.5" lengthAdjust="spacing" textLength="215.8447" x="573.1717" y="1036.8042">Cancel Order</text></g><!--entity UC6--><g class="entity" data-qualified-name="E-Commerce Platform.UC6" data-source-line="18" id="ent0012"><ellipse cx="681.0995" cy="1222.8027" fill="#F1F1F1" rx="158.7245" ry="44.644" style="stroke:#181818;stroke-width:1.5625;"/><text fill="#000000" font-family="'Segoe UI', 'Inter', 'sans-serif'" font-size="37.5" lengthAdjust="spacing" textLength="211.2122" x="575.4935" y="1236.8042">Issue Refund</text></g><!--entity UC7--><g class="entity" data-qualified-name="E-Commerce Platform.UC7" data-source-line="19" id="ent0013"><ellipse cx="681.0867" cy="1425.926" fill="#F1F1F1" rx="204.7742" ry="48.4548" style="stroke:#181818;stroke-width:1.5625;"/><text fill="#000000" font-family="'Segoe UI', 'Inter', 'sans-serif'" font-size="37.5" lengthAdjust="spacing" textLength="300.8789" x="530.6472" y="1439.9275">Manage Inventory</text></g><!--entity UC8--><g class="entity" data-qualified-name="E-Commerce Platform.UC8" data-source-line="20" id="ent0014"><ellipse cx="681.0917" cy="2257.1777" fill="#F1F1F1" rx="182.1854" ry="44.644" style="stroke:#181818;stroke-width:1.5625;"/><text fill="#000000" font-family="'Segoe UI', 'Inter', 'sans-serif'" font-size="37.5" lengthAdjust="spacing" textLength="244.3909" x="558.8963" y="2271.1792">Update Pricing</text></g><!--entity UC9--><g class="entity" data-qualified-name="E-Commerce Platform.UC9" data-source-line="21" id="ent0015"><ellipse cx="681.082" cy="2050.9313" fill="#F1F1F1" rx="231.0508" ry="53.7102" style="stroke:#181818;stroke-width:1.5625;"/><text fill="#000000" font-family="'Segoe UI', 'Inter', 'sans-serif'" font-size="37.5" lengthAdjust="spacing" textLength="366.5588" x="497.8026" y="2064.9328">Generate Sales Report</text></g><!--entity UC10--><g class="entity" data-qualified-name="E-Commerce Platform.UC10" data-source-line="22" id="ent0016"><ellipse cx="681.1015" cy="1629.0527" fill="#F1F1F1" rx="176.3202" ry="44.644" style="stroke:#181818;stroke-width:1.5625;"/><text fill="#000000" font-family="'Segoe UI', 'Inter', 'sans-serif'" font-size="37.5" lengthAdjust="spacing" textLength="236.0962" x="563.0534" y="1643.0542">View Analytics</text></g><!--entity UC11--><g class="entity" data-qualified-name="E-Commerce Platform.UC11" data-source-line="23" id="ent0017"><ellipse cx="681.0817" cy="2466.55" fill="#F1F1F1" rx="237.113" ry="54.9226" style="stroke:#181818;stroke-width:1.5625;"/><text fill="#000000" font-family="'Segoe UI', 'Inter', 'sans-serif'" font-size="37.5" lengthAdjust="spacing" textLength="381.134" x="490.5147" y="2480.5515">Monitor System Health</text></g><!--entity UC12--><g class="entity" data-qualified-name="E-Commerce Platform.UC12" data-source-line="24" id="ent0018"><ellipse cx="681.092" cy="2679.0708" fill="#F1F1F1" rx="198.3107" ry="47.1621" style="stroke:#181818;stroke-width:1.5625;"/><text fill="#000000" font-family="'Segoe UI', 'Inter', 'sans-serif'" font-size="37.5" lengthAdjust="spacing" textLength="283.8867" x="539.1486" y="2693.0723">Backup Database</text></g><!--entity UC13--><g class="entity" data-qualified-name="E-Commerce Platform.UC13" data-source-line="25" id="ent0019"><ellipse cx="681.1085" cy="1835.3304" fill="#F1F1F1" rx="220.7022" ry="51.6404" style="stroke:#181818;stroke-width:1.5625;"/><text fill="#000000" font-family="'Segoe UI', 'Inter', 'sans-serif'" font-size="37.5" lengthAdjust="spacing" textLength="341.2354" x="510.4908" y="1849.3318">Reset User Password</text></g><!--entity UC14--><g class="entity" data-qualified-name="E-Commerce Platform.UC14" data-source-line="26" id="ent0020"><ellipse cx="681.0973" cy="2885.3282" fill="#F1F1F1" rx="217.5661" ry="51.0132" style="stroke:#181818;stroke-width:1.5625;"/><text fill="#000000" font-family="'Segoe UI', 'Inter', 'sans-serif'" font-size="37.5" lengthAdjust="spacing" textLength="333.4351" x="514.3798" y="2899.3296">Configure Payments</text></g><!--entity C--><g class="entity" data-qualified-name="C" data-source-line="7" id="ent0002"><ellipse cx="137.6146" cy="527.5649" fill="#F7768E" rx="25" ry="25" style="stroke:#F7768E;stroke-width:1.5625;"/><path d="M137.6146,552.5649 L137.6146,636.9399 M96.9896,577.5649 L178.2396,577.5649 M137.6146,636.9399 L96.9896,683.8149 M137.6146,636.9399 L178.2396,683.8149" fill="none" style="stroke:#F7768E;stroke-width:1.5625;"/><text fill="#C0CAF5" font-family="'Segoe UI', 'Inter', 'sans-serif'" font-size="37.5" lengthAdjust="spacing" textLength="159.9792" x="57.625" y="728.9688">Customer</text></g><!--entity A--><g class="entity" data-qualified-name="A" data-source-line="8" id="ent0003"><ellipse cx="137.6241" cy="1130.6899" fill="#F7768E" rx="25" ry="25" style="stroke:#F7768E;stroke-width:1.5625;"/><path d="M137.6241,1155.6899 L137.6241,1240.0649 M96.9991,1180.6899 L178.2491,1180.6899 M137.6241,1240.0649 L96.9991,1286.9399 M137.6241,1240.0649 L178.2491,1286.9399" fill="none" style="stroke:#F7768E;stroke-width:1.5625;"/><text fill="#C0CAF5" font-family="'Segoe UI', 'Inter', 'sans-serif'" font-size="37.5" lengthAdjust="spacing" textLength="99.8108" x="87.7188" y="1332.0938">Agent</text></g><!--entity M--><g class="entity" data-qualified-name="M" data-source-line="9" id="ent0004"><ellipse cx="137.611" cy="1749.4399" fill="#F7768E" rx="25" ry="25" style="stroke:#F7768E;stroke-width:1.5625;"/><path d="M137.611,1774.4399 L137.611,1858.8149 M96.986,1799.4399 L178.236,1799.4399 M137.611,1858.8149 L96.986,1905.6899 M137.611,1858.8149 L178.236,1905.6899" fill="none" style="stroke:#F7768E;stroke-width:1.5625;"/><text fill="#C0CAF5" font-family="'Segoe UI', 'Inter', 'sans-serif'" font-size="37.5" lengthAdjust="spacing" textLength="147.7844" x="63.7188" y="1950.8438">Manager</text></g><!--entity Admin--><g class="entity" data-qualified-name="Admin" data-source-line="10" id="ent0005"><ellipse cx="137.6221" cy="2480.6899" fill="#F7768E" rx="25" ry="25" style="stroke:#F7768E;stroke-width:1.5625;"/><path d="M137.6221,2505.6899 L137.6221,2590.0649 M96.9971,2530.6899 L178.2471,2530.6899 M137.6221,2590.0649 L96.9971,2636.9399 M137.6221,2590.0649 L178.2471,2636.9399" fill="none" style="stroke:#F7768E;stroke-width:1.5625;"/><text fill="#C0CAF5" font-family="'Segoe UI', 'Inter', 'sans-serif'" font-size="37.5" lengthAdjust="spacing" textLength="237.7441" x="18.75" y="2682.0938">System Admin</text></g><!--link C to UC1--><g class="link" data-entity-1="ent0002" data-entity-2="ent0007" data-link-type="dependency" data-source-line="29" id="lnk21"><path d="M219.0625,581.6899 C262.6875,561.1899 318.2813,536.1587 369,516.5649 C430,493.0024 481.2485,475.809 538.6548,457.9965" fill="none" id="C-to-UC1" style="stroke:#7AA2F7;stroke-width:3.125;"/><polygon fill="#7AA2F7" points="556.5625,452.4399,525.9965,448.8363,541.6394,457.0704,533.4053,472.7133,556.5625,452.4399" style="stroke:#7AA2F7;stroke-width:3.125;"/></g><!--link C to UC2--><g class="link" data-entity-1="ent0002" data-entity-2="ent0008" data-link-type="dependency" data-source-line="30" id="lnk22"><path d="M206.2188,500.3462 C245.9375,437.7524 301.9375,364.3462 369,316.5649 C423.625,277.6274 476.0548,257.8111 535.9611,242.9049" fill="none" id="C-to-UC2" style="stroke:#7AA2F7;stroke-width:3.125;"/><polygon fill="#7AA2F7" points="554.1563,238.3774,523.8452,233.0385,538.9936,242.1503,529.8818,257.2987,554.1563,238.3774" style="stroke:#7AA2F7;stroke-width:3.125;"/></g><!--link C to UC3--><g class="link" data-entity-1="ent0002" data-entity-2="ent0009" data-link-type="dependency" data-source-line="31" id="lnk23"><path d="M219.0625,657.6899 C262.6875,678.1899 318.2813,703.2212 369,722.8149 C440.5313,750.4399 505.3091,771.4915 567.1528,790.2727" fill="none" id="C-to-UC3" style="stroke:#7AA2F7;stroke-width:3.125;"/><polygon fill="#7AA2F7" points="585.0938,795.7212,561.8147,775.5879,570.143,791.1808,554.5501,799.5091,585.0938,795.7212" style="stroke:#7AA2F7;stroke-width:3.125;"/></g><!--link C to UC4--><g class="link" data-entity-1="ent0002" data-entity-2="ent0010" data-link-type="dependency" data-source-line="32" id="lnk24"><path d="M218.875,619.6899 C284.9375,619.6899 363.9063,619.6899 452.25,619.6899" fill="none" id="C-to-UC4" style="stroke:#7AA2F7;stroke-width:3.125;"/><polygon fill="#7AA2F7" points="471,619.6899,442.875,607.1899,455.375,619.6899,442.875,632.1899,471,619.6899" style="stroke:#7AA2F7;stroke-width:3.125;"/></g><!--link C to UC5--><g class="link" data-entity-1="ent0002" data-entity-2="ent0011" data-link-type="dependency" data-source-line="33" id="lnk25"><path d="M206.2188,739.0337 C245.9375,801.6274 301.9375,875.0337 369,922.8149 C420.4063,959.4712 467.8644,978.4294 525.3644,993.5231" fill="none" id="C-to-UC5" style="stroke:#7AA2F7;stroke-width:3.125;"/><polygon fill="#7AA2F7" points="543.5,998.2837,519.4704,979.0524,528.387,994.3165,513.1229,1003.2332,543.5,998.2837" style="stroke:#7AA2F7;stroke-width:3.125;"/></g><!--link A to UC5--><g class="link" data-entity-1="ent0003" data-entity-2="ent0011" data-link-type="dependency" data-source-line="35" id="lnk26"><path d="M188.25,1200.3462 C234.0313,1179.0649 305.5,1146.9399 369,1122.8149 C433.8125,1098.1899 489.7763,1079.704 549.0263,1061.3602" fill="none" id="A-to-UC5" style="stroke:#7AA2F7;stroke-width:3.125;"/><polygon fill="#7AA2F7" points="566.9375,1055.8149,536.3738,1052.1921,552.0115,1060.436,543.7675,1076.0737,566.9375,1055.8149" style="stroke:#7AA2F7;stroke-width:3.125;"/></g><!--link A to UC6--><g class="link" data-entity-1="ent0003" data-entity-2="ent0012" data-link-type="dependency" data-source-line="36" id="lnk27"><path d="M188.4375,1222.8149 C262.375,1222.8149 389.2813,1222.8149 502.5625,1222.8149" fill="none" id="A-to-UC6" style="stroke:#7AA2F7;stroke-width:3.125;"/><polygon fill="#7AA2F7" points="521.3125,1222.8149,493.1875,1210.3149,505.6875,1222.8149,493.1875,1235.3149,521.3125,1222.8149" style="stroke:#7AA2F7;stroke-width:3.125;"/></g><!--link A to UC13--><g class="link" data-entity-1="ent0003" data-entity-2="ent0019" data-link-type="dependency" data-source-line="37" id="lnk28"><path d="M165.7188,1342.3774 C195.4688,1456.5962 256.0625,1626.1274 369,1729.0649 C406.9375,1763.6587 438.832,1781.2462 487.2695,1797.0587" fill="none" id="A-to-UC13" style="stroke:#7AA2F7;stroke-width:3.125;"/><polygon fill="#7AA2F7" points="505.0938,1802.8774,482.2365,1782.2665,490.2402,1798.0285,474.4782,1806.0321,505.0938,1802.8774" style="stroke:#7AA2F7;stroke-width:3.125;"/></g><!--link M to UC7--><g class="link" data-entity-1="ent0004" data-entity-2="ent0013" data-link-type="dependency" data-source-line="39" id="lnk29"><path d="M203.7188,1721.8462 C243.4063,1656.7212 300.0938,1579.4087 369,1529.0649 C413.9688,1496.1899 452.1399,1478.7518 504.1399,1463.0955" fill="none" id="M-to-UC7" style="stroke:#7AA2F7;stroke-width:3.125;"/><polygon fill="#7AA2F7" points="522.0938,1457.6899,491.5592,1453.8291,507.1322,1462.1946,498.7666,1477.7676,522.0938,1457.6899" style="stroke:#7AA2F7;stroke-width:3.125;"/></g><!--link M to UC8--><g class="link" data-entity-1="ent0004" data-entity-2="ent0014" data-link-type="dependency" data-source-line="40" id="lnk30"><path d="M201.0313,1961.0649 C240.4688,2028.2837 297.875,2108.8149 369,2160.3149 C416.125,2194.4399 457.5461,2211.9584 511.7336,2226.4897" fill="none" id="M-to-UC8" style="stroke:#7AA2F7;stroke-width:3.125;"/><polygon fill="#7AA2F7" points="529.8438,2231.3462,505.9162,2211.988,514.752,2227.2991,499.4409,2236.1348,529.8438,2231.3462" style="stroke:#7AA2F7;stroke-width:3.125;"/></g><!--link M to UC9--><g class="link" data-entity-1="ent0004" data-entity-2="ent0015" data-link-type="dependency" data-source-line="41" id="lnk31"><path d="M212.1563,1874.4399 C256.875,1894.6274 315.875,1920.5649 369,1941.5649 C426.1563,1964.1587 472.3498,1981.0087 527.1623,2000.04" fill="none" id="M-to-UC9" style="stroke:#7AA2F7;stroke-width:3.125;"/><polygon fill="#7AA2F7" points="544.875,2006.1899,522.4059,1985.1565,530.1144,2001.065,514.2059,2008.7735,544.875,2006.1899" style="stroke:#7AA2F7;stroke-width:3.125;"/></g><!--link M to UC10--><g class="link" data-entity-1="ent0004" data-entity-2="ent0016" data-link-type="dependency" data-source-line="42" id="lnk32"><path d="M212.5,1802.8462 C256.8438,1779.7837 315.375,1750.8149 369,1729.0649 C431.1563,1703.8462 484.3778,1685.9088 542.6903,1668.1275" fill="none" id="M-to-UC10" style="stroke:#7AA2F7;stroke-width:3.125;"/><polygon fill="#7AA2F7" points="560.625,1662.6587,530.077,1658.9055,545.6794,1667.2161,537.3688,1682.8184,560.625,1662.6587" style="stroke:#7AA2F7;stroke-width:3.125;"/></g><!--link Admin to UC11--><g class="link" data-entity-1="ent0005" data-entity-2="ent0017" data-link-type="dependency" data-source-line="44" id="lnk33"><path d="M257.3125,2549.7524 C327.375,2535.9087 399.6061,2521.6079 478.7936,2505.9516" fill="none" id="Admin-to-UC11" style="stroke:#7AA2F7;stroke-width:3.125;"/><polygon fill="#7AA2F7" points="497.1875,2502.3149,467.1721,2495.5073,481.8592,2505.3455,472.021,2520.0326,497.1875,2502.3149" style="stroke:#7AA2F7;stroke-width:3.125;"/></g><!--link Admin to UC12--><g class="link" data-entity-1="ent0005" data-entity-2="ent0018" data-link-type="dependency" data-source-line="45" id="lnk34"><path d="M257.3125,2595.8774 C335.7188,2611.3774 421.4496,2628.3356 506.5121,2645.1481" fill="none" id="Admin-to-UC12" style="stroke:#7AA2F7;stroke-width:3.125;"/><polygon fill="#7AA2F7" points="524.9063,2648.7837,499.7387,2631.0675,509.5778,2645.754,494.8913,2655.5931,524.9063,2648.7837" style="stroke:#7AA2F7;stroke-width:3.125;"/></g><!--link Admin to UC14--><g class="link" data-entity-1="ent0005" data-entity-2="ent0020" data-link-type="dependency" data-source-line="46" id="lnk35"><path d="M252.7813,2692.8774 C287.5938,2725.1899 327.75,2757.9087 369,2782.1899 C417,2810.4712 455.9093,2826.6813 507.628,2842.7751" fill="none" id="Admin-to-UC14" style="stroke:#7AA2F7;stroke-width:3.125;"/><polygon fill="#7AA2F7" points="525.5313,2848.3462,502.3905,2828.0541,510.6119,2843.7036,494.9624,2851.925,525.5313,2848.3462" style="stroke:#7AA2F7;stroke-width:3.125;"/></g><!--link Admin to UC13--><g class="link" data-entity-1="ent0005" data-entity-2="ent0019" data-link-type="dependency" data-source-line="47" id="lnk36"><path d="M153.0938,2452.7837 C173.8125,2311.9399 228.2188,2080.1274 369,1941.5649 C405.1875,1905.9399 435.997,1888.0981 483.997,1872.3481" fill="none" id="Admin-to-UC13" style="stroke:#7AA2F7;stroke-width:3.125;"/><polygon fill="#7AA2F7" points="501.8125,1866.5024,471.1922,1863.394,486.9663,1871.3739,478.9865,1887.148,501.8125,1866.5024" style="stroke:#7AA2F7;stroke-width:3.125;"/></g><g class="footer" data-source-line="3"><text fill="#888888" font-family="'Segoe UI', 'Inter', 'sans-serif'" font-size="31.25" lengthAdjust="spacing" textLength="380.7983" x="281.2102" y="3034.6619">Generated by plantuml-skill</text></g><?plantuml-src RP9DRzim38Rl-XMSxqwNZtvT2hXUiVOGB6YGtLcPjeN8ag6F5S6m_puvjZJOc4ylgSUa-59VXEBILmIhrGrQIyxUz8OwuRlSjTJHglUTP2rXHGQomtW4BpdNNKU64-nHOHD0vJ9MQ-q6x3ifCkYeWeyBz1AL2qLoUnPIPen9gXqu3KOqhODA6E9EQCKOSgV3twMtJeVY6Q25CcQBPcWnf8gO6bkFt3ucZnVhg8EYweGQyK4nDdH1rKY2x2Klu-qF4bsjJPV1RmRXyvOusi0S2GrluM1qvRcprqgdSZs7YgeQ1YdHk0dOp86o9NxMFfvkvwS_1Nt23pCu-oh2pEOoSRj55LISv4XEnEsSUBFM4xnJxLKr4NTpOlGAtjIlOEE_JlTpwjHNOMrXQi65QYRcOSx4vS8H9TdGjDTf_CV_35Web1SdUFBmw-9cMebXSzFYNWcbQoExCFmP-Tdty0qTVeH4f1QklrDunt2omTT3UDEVsaHJreiDb5hLel4cZ8oNuGsdI-xO7yPAoFEdwzgZsYIrJMgNr2rZHP9HtIKLkhFzfE-JUaZgCQdW4Rk-snYlv-5c7kxcuVOl?></g></svg>